<svg width="58" height="58" viewBox="0 0 58 58" fill="none" xmlns="http://www.w3.org/2000/svg">
<path d="M26.5833 57.0092V48.3092C14.4758 47.6809 4.83334 37.6275 4.83334 25.375C4.83334 12.7117 15.1283 2.41669 27.7917 2.41669C40.455 2.41669 50.75 12.7117 50.75 25.375C50.75 37.3375 42.4367 49.3725 30.0392 55.3417L26.5833 57.0092ZM27.7917 7.25002C17.7867 7.25002 9.66668 15.37 9.66668 25.375C9.66668 35.38 17.7867 43.5 27.7917 43.5H31.4167V49.0584C40.2133 43.5 45.9167 34.365 45.9167 25.375C45.9167 15.37 37.7967 7.25002 27.7917 7.25002ZM25.375 35.0417H30.2083V39.875H25.375V35.0417ZM30.2083 31.4167H25.375C25.375 23.5625 32.625 24.1667 32.625 19.3334C32.625 16.675 30.45 14.5 27.7917 14.5C25.1333 14.5 22.9583 16.675 22.9583 19.3334H18.125C18.125 13.9925 22.4508 9.66669 27.7917 9.66669C33.1325 9.66669 37.4583 13.9925 37.4583 19.3334C37.4583 25.375 30.2083 25.9792 30.2083 31.4167Z" fill="url(#paint0_linear)"/>
<defs>
<linearGradient id="paint0_linear" x1="-2.29166" y1="5.58269" x2="74.7682" y2="65.128" gradientUnits="userSpaceOnUse">
<stop offset="0.0001" stop-color="#6D5FCF"/>
<stop offset="1" stop-color="#1D5CA6" stop-opacity="0.58"/>
</linearGradient>
</defs>
</svg>
