<?xml version="1.0"?>
<svg xmlns="http://www.w3.org/2000/svg" xmlns:xlink="http://www.w3.org/1999/xlink" xmlns:svgjs="http://svgjs.com/svgjs" version="1.1" width="512" height="512" x="0" y="0" viewBox="0 0 512 512" style="enable-background:new 0 0 512 512" xml:space="preserve" class=""><g><path xmlns="http://www.w3.org/2000/svg" d="m478.887 186.952c-.46-7.046-6.461-12.512-13.517-12.31-41.244 1.132-98.668-2.523-133.051-25.669v-34.623c0-5.31-2.059-10.507-5.942-14.432l-93.078-93.847c-3.888-3.925-9.159-6.071-14.559-6.071h-165.921c-11.304 0-20.5 9.196-20.5 20.5v269.157c0 4.142 3.358 7.5 7.5 7.5s7.5-3.358 7.5-7.5v-269.157c0-3.033 2.467-5.5 5.5-5.5h164.002v85.82c0 8.266 6.725 14.99 14.99 14.99h85.507v33.176c-34.257 23.084-91.577 26.783-133.029 25.656-7.064-.197-13.058 5.265-13.516 12.313-7.479 115.428 34.125 249.325 146.545 282.527v22.018c0 3.033-2.467 5.5-5.5 5.5h-259c-3.033 0-5.5-2.467-5.5-5.5v-171.843c0-4.142-3.358-7.5-7.5-7.5s-7.5 3.358-7.5 7.5v171.843c0 11.304 9.196 20.5 20.5 20.5h259c11.304 0 20.5-9.196 20.5-20.5v-22.013c56.288-16.636 99.212-59.842 124.161-125.031 1.48-3.869-.455-8.205-4.324-9.685-3.866-1.481-8.205.455-9.685 4.324-16.275 42.526-49.48 97.217-115.243 116.266-1.555.451-3.238.45-4.798-.001-104.811-30.332-143.277-156.818-136.797-265.679 43.937 1.048 102.332-3.381 139.197-27.67 36.849 24.246 95.111 28.734 139.198 27.67 2.356 39.193-1.639 82.398-12.453 121.586-1.102 3.993 1.242 8.123 5.235 9.225 3.991 1.1 8.123-1.242 9.225-5.235 11.446-41.477 15.539-87.135 12.853-128.305zm-247.065-86.132v-74.935c5.086 5.128 51.665 52.092 74.312 74.927z" fill="#3f4359" data-original="#000000" style="" class=""/><path xmlns="http://www.w3.org/2000/svg" d="m261.507 227.148c-22.507 18.832-35.415 46.448-35.415 75.766 0 54.45 44.298 98.748 98.748 98.748s98.748-44.298 98.748-98.748c0-69.196-69.704-117.049-134.251-92.17-3.865 1.489-5.791 5.83-4.301 9.695s5.831 5.79 9.695 4.301c54.807-21.123 113.856 19.584 113.856 78.174 0 46.179-37.569 83.748-83.748 83.748s-83.748-37.569-83.748-83.748c0-24.865 10.95-48.288 30.041-64.262 3.177-2.658 3.597-7.388.939-10.565-2.656-3.176-7.386-3.597-10.564-.939z" fill="#3f4359" data-original="#000000" style="" class=""/><path xmlns="http://www.w3.org/2000/svg" d="m355.071 263.435c3.285 2.523 7.994 1.904 10.517-1.381 2.522-3.286 1.904-7.994-1.381-10.517-42.351-32.52-104.115-2.241-104.115 51.377 0 53.734 61.952 83.912 104.239 51.281 3.279-2.53 3.886-7.24 1.355-10.52-2.53-3.279-7.239-3.887-10.52-1.355-32.416 25.014-80.075 1.948-80.075-39.406.001-41.18 47.438-64.467 79.98-39.479z" fill="#3f4359" data-original="#000000" style="" class=""/><path xmlns="http://www.w3.org/2000/svg" d="m70.5 435.167h136c4.142 0 7.5-3.358 7.5-7.5s-3.358-7.5-7.5-7.5h-136c-4.142 0-7.5 3.358-7.5 7.5s3.358 7.5 7.5 7.5z" fill="#3f4359" data-original="#000000" style="" class=""/><path xmlns="http://www.w3.org/2000/svg" d="m70.5 385.982h109.5c4.142 0 7.5-3.358 7.5-7.5s-3.358-7.5-7.5-7.5h-109.5c-4.142 0-7.5 3.358-7.5 7.5s3.358 7.5 7.5 7.5z" fill="#3f4359" data-original="#000000" style="" class=""/><path xmlns="http://www.w3.org/2000/svg" d="m70.5 336.798h88c4.142 0 7.5-3.358 7.5-7.5s-3.358-7.5-7.5-7.5h-88c-4.142 0-7.5 3.358-7.5 7.5s3.358 7.5 7.5 7.5z" fill="#3f4359" data-original="#000000" style="" class=""/><path xmlns="http://www.w3.org/2000/svg" d="m70.5 287.614h78.5c4.142 0 7.5-3.358 7.5-7.5s-3.358-7.5-7.5-7.5h-78.5c-4.142 0-7.5 3.358-7.5 7.5s3.358 7.5 7.5 7.5z" fill="#3f4359" data-original="#000000" style="" class=""/><path xmlns="http://www.w3.org/2000/svg" d="m70.5 238.43h73.5c4.142 0 7.5-3.358 7.5-7.5s-3.358-7.5-7.5-7.5h-73.5c-4.142 0-7.5 3.358-7.5 7.5s3.358 7.5 7.5 7.5z" fill="#3f4359" data-original="#000000" style="" class=""/><path xmlns="http://www.w3.org/2000/svg" d="m70.5 189.246h72.5c4.142 0 7.5-3.358 7.5-7.5s-3.358-7.5-7.5-7.5h-72.5c-4.142 0-7.5 3.358-7.5 7.5s3.358 7.5 7.5 7.5z" fill="#3f4359" data-original="#000000" style="" class=""/><path xmlns="http://www.w3.org/2000/svg" d="m70.5 140.062h129.167c4.142 0 7.5-3.358 7.5-7.5s-3.358-7.5-7.5-7.5h-129.167c-4.142 0-7.5 3.358-7.5 7.5s3.358 7.5 7.5 7.5z" fill="#3f4359" data-original="#000000" style="" class=""/><path xmlns="http://www.w3.org/2000/svg" d="m70.5 91.5h103c4.142 0 7.5-3.358 7.5-7.5s-3.358-7.5-7.5-7.5h-103c-4.142 0-7.5 3.358-7.5 7.5s3.358 7.5 7.5 7.5z" fill="#3f4359" data-original="#000000" style="" class=""/></g></svg>
