<?xml version="1.0"?>
<svg xmlns="http://www.w3.org/2000/svg" xmlns:xlink="http://www.w3.org/1999/xlink" xmlns:svgjs="http://svgjs.com/svgjs" version="1.1" width="512" height="512" x="0" y="0" viewBox="0 0 64 64" style="enable-background:new 0 0 512 512" xml:space="preserve" class=""><g><path xmlns="http://www.w3.org/2000/svg" d="m57.991 24.127-5.367-5.367a3 3 0 0 0 -4.6.428l-6.4 9.357a3 3 0 0 0 1.4 4.495l3.958 1.523a1 1 0 0 1 .348 1.639l-12.618 12.62a1 1 0 0 1 -1.641-.349l-1.523-3.959a3 3 0 0 0 -4.494-1.4l-9.358 6.4a3 3 0 0 0 -.428 4.6l5.368 5.368a11.994 11.994 0 0 0 16.97 0l18.385-18.382a12.014 12.014 0 0 0 0-16.973zm-2.829 14.142a1 1 0 0 1 -1.414-1.414 6.009 6.009 0 0 0 0-8.486 1 1 0 0 1 1.414-1.414 8.008 8.008 0 0 1 0 11.314z" fill="#767676" data-original="#c4a2fc" style="" class=""/><g xmlns="http://www.w3.org/2000/svg" fill="#151a6a"><path d="m27.5 15a11 11 0 1 0 11 11 11.013 11.013 0 0 0 -11-11zm-5.854 17.822a7.483 7.483 0 0 1 11.708 0 8.956 8.956 0 0 1 -11.708 0zm13.081-1.48a9.485 9.485 0 0 0 -14.454 0 9 9 0 1 1 14.454 0z" fill="#3f4359" data-original="#151a6a" style="" class=""/><path d="m27.5 19a3.5 3.5 0 1 0 3.5 3.5 3.5 3.5 0 0 0 -3.5-3.5zm0 5a1.5 1.5 0 1 1 1.5-1.5 1.5 1.5 0 0 1 -1.5 1.5z" fill="#3f4359" data-original="#151a6a" style="" class=""/><path d="m49.5 23a3 3 0 0 0 3-3v-8a3 3 0 0 0 -3-3h-1v-3a5.006 5.006 0 0 0 -5-5h-34a3 3 0 0 0 -3 3v5h-1a3 3 0 0 0 0 6h1v8h-1a3 3 0 0 0 0 6h1v8h-1a3 3 0 0 0 0 6h1v5a3 3 0 0 0 3 3h34a5.006 5.006 0 0 0 5-5v-3h1a3 3 0 0 0 3-3v-8a3 3 0 0 0 -3-3h-1v-6zm0-12a1 1 0 0 1 1 1v8a1 1 0 0 1 -1 1h-1v-10zm-45 1a1 1 0 0 1 1-1h4a1 1 0 0 1 0 2h-4a1 1 0 0 1 -1-1zm0 14a1 1 0 0 1 1-1h4a1 1 0 0 1 0 2h-4a1 1 0 0 1 -1-1zm0 14a1 1 0 0 1 1-1h4a1 1 0 0 1 0 2h-4a1 1 0 0 1 -1-1zm42 6a3 3 0 0 1 -3 3h-34a1 1 0 0 1 -1-1v-5h1a3 3 0 0 0 0-6h-1v-8h1a3 3 0 0 0 0-6h-1v-8h1a3 3 0 0 0 0-6h-1v-5a1 1 0 0 1 1-1h34a3 3 0 0 1 3 3zm3-15a1 1 0 0 1 1 1v8a1 1 0 0 1 -1 1h-1v-10z" fill="#3f4359" data-original="#151a6a" style="" class=""/></g></g></svg>
