<svg width="617" height="617" viewBox="0 0 617 617" fill="none" xmlns="http://www.w3.org/2000/svg">
<path d="M119.76 380.923C141.355 412.699 176.376 435.084 215.358 442.821C253.612 450.435 271.159 416.697 307.747 403.037C337.437 391.931 370.496 396.558 400.408 386.674C428.951 377.246 453.668 357.058 467.217 330.009C484.851 294.852 479.421 258.177 465.514 222.971C456.876 201.179 446.942 180.559 431.271 162.888C396.595 123.758 344.348 110.394 296.37 132.532C278.02 140.984 261.522 152.917 245.332 164.998C205.004 195.083 165.677 226.488 125.905 257.314C118.735 262.879 111.443 268.568 106.334 276.083C98.0413 288.275 96.4618 303.91 97.6958 318.619C99.493 340.955 107.099 362.434 119.76 380.923Z" fill="#6C5ECF"/>
<path opacity="0.9" d="M119.76 380.923C141.355 412.699 176.376 435.084 215.358 442.821C253.612 450.435 271.159 416.697 307.747 403.037C337.437 391.931 370.496 396.558 400.408 386.674C428.951 377.246 453.668 357.058 467.217 330.009C484.851 294.852 479.421 258.177 465.514 222.971C456.876 201.179 446.942 180.559 431.271 162.888C396.595 123.758 344.348 110.394 296.37 132.532C278.02 140.984 261.522 152.917 245.332 164.998C205.004 195.083 165.677 226.488 125.905 257.314C118.735 262.879 111.443 268.568 106.334 276.083C98.0413 288.275 96.4618 303.91 97.6958 318.619C99.493 340.955 107.099 362.434 119.76 380.923Z" fill="white"/>
<path d="M308.5 527.609C440.64 527.609 547.76 521.355 547.76 513.64C547.76 505.925 440.64 499.671 308.5 499.671C176.36 499.671 69.2397 505.925 69.2397 513.64C69.2397 521.355 176.36 527.609 308.5 527.609Z" fill="#F5F5F5"/>
<path d="M191.171 503.904H200.71L204.523 481.828H194.984L191.171 503.904Z" fill="#FFC3BD"/>
<path d="M135.111 503.904H144.649L153.362 481.828H143.823L135.111 503.904Z" fill="#FFC3BD"/>
<path d="M145.982 502.806H134.358C134.168 502.809 133.984 502.873 133.833 502.988C133.682 503.104 133.572 503.265 133.519 503.447L131.137 511.925C131.078 512.119 131.064 512.324 131.098 512.525C131.132 512.725 131.212 512.915 131.331 513.079C131.451 513.243 131.607 513.377 131.788 513.47C131.968 513.563 132.168 513.613 132.371 513.615C136.073 513.554 138.862 513.332 143.564 513.332C146.463 513.332 152.411 513.64 156.422 513.64C160.432 513.64 161.173 509.679 159.556 509.321C152.3 507.717 149.684 505.496 147.438 503.386C147.041 503.02 146.522 502.813 145.982 502.806Z" fill="#263238"/>
<path d="M200.698 502.806H190.295C190.103 502.808 189.917 502.872 189.764 502.987C189.611 503.102 189.499 503.264 189.444 503.447L187.074 511.925C187.012 512.119 186.997 512.325 187.029 512.527C187.062 512.728 187.142 512.919 187.262 513.084C187.382 513.248 187.54 513.382 187.721 513.475C187.903 513.567 188.104 513.615 188.308 513.615C192.01 513.554 197.502 513.332 202.216 513.332C207.744 513.332 212.482 513.64 218.961 513.64C222.873 513.64 224.181 509.679 222.564 509.321C215.16 507.692 209.126 507.52 202.919 503.546C202.264 503.094 201.493 502.837 200.698 502.806Z" fill="#263238"/>
<path d="M200.204 230.869C205.239 234.028 210.533 237.212 215.753 240.235C220.972 243.258 226.279 246.195 231.585 248.737C232.905 249.391 234.226 249.971 235.546 250.564C236.2 250.86 236.854 251.094 237.508 251.366L238.495 251.773L239.297 252.069C240.992 252.808 242.864 253.044 244.69 252.748C246.684 252.245 248.473 251.138 249.811 249.576C250.684 248.638 251.481 247.631 252.193 246.565C252.563 246.01 252.921 245.43 253.254 244.838L254.204 243.098L261.188 244.702C261.086 245.631 260.934 246.554 260.732 247.466C260.534 248.33 260.312 249.194 260.041 250.058C259.503 251.828 258.771 253.533 257.857 255.142C256.85 256.898 255.604 258.505 254.155 259.917C252.578 261.474 250.729 262.728 248.7 263.619C246.612 264.525 244.373 265.035 242.098 265.125C239.969 265.222 237.837 265.01 235.768 264.496C235.299 264.384 234.731 264.261 234.337 264.125L233.103 263.743C232.301 263.484 231.474 263.237 230.696 262.953C229.141 262.373 227.537 261.83 226.044 261.188C220.089 258.722 214.276 255.925 208.632 252.81C205.831 251.279 203.067 249.712 200.352 248.059C197.637 246.405 194.96 244.776 192.233 242.938L200.204 230.869Z" fill="#FFC3BD"/>
<path d="M185.853 239.667C187.741 248.774 210.656 261.879 210.656 261.879L219.01 239.927C219.01 239.927 212.482 235.842 202.734 229.327C192.985 222.811 183.767 229.672 185.853 239.667Z" fill="#263238"/>
<path d="M251.551 246.615L258.177 236.212L263.113 247.54C263.113 247.54 259.189 253.488 253.13 250.428L251.551 246.615Z" fill="#FFC3BD"/>
<path d="M266.63 232.276L269.876 240.766L263.126 247.528L258.177 236.212L266.63 232.276Z" fill="#FFC3BD"/>
<path opacity="0.2" d="M204.523 481.84L202.549 493.217H193.022L194.984 481.84H204.523Z" fill="black"/>
<path opacity="0.2" d="M143.823 481.84H153.361L148.857 493.217H139.331L143.823 481.84Z" fill="black"/>
<path d="M196.909 227.056C196.909 227.056 210.15 254.352 203.437 309.29L152.843 315.929C151.93 308.154 154.077 269.37 143.872 233.522C149.364 231.71 154.965 230.247 160.642 229.141C167.743 227.789 174.916 226.85 182.126 226.328C187.065 226.177 192.009 226.421 196.909 227.056Z" fill="#263238"/>
<path opacity="0.2" d="M143.921 233.547L144.144 233.473C149.08 232.091 154.768 237.298 157.804 244.9C162.234 256.006 167.454 270.653 167.454 270.653L151.103 274.565C149.98 260.7 147.576 246.969 143.921 233.547Z" fill="black"/>
<path d="M161.049 204.511C162.913 211.298 165.183 223.885 160.691 229.191C166.512 234.045 173.649 237.053 181.188 237.829C185.914 232.806 182.175 226.39 182.175 226.39C174.327 225.538 174.117 219.751 175.068 214.161L161.049 204.511Z" fill="#FFC3BD"/>
<path d="M200.426 289.274L189.086 226.34C186.999 226.715 185.007 227.497 183.223 228.642C181.439 229.787 179.898 231.273 178.688 233.013C177.477 234.754 176.622 236.716 176.17 238.787C175.719 240.858 175.679 242.998 176.055 245.085L181.669 276.28C182.438 280.488 184.845 284.22 188.361 286.656C191.877 289.092 196.216 290.033 200.426 289.274Z" fill="#6C5ECF"/>
<path opacity="0.3" d="M200.426 289.274L189.086 226.34C186.999 226.715 185.007 227.497 183.223 228.642C181.439 229.787 179.898 231.273 178.688 233.013C177.477 234.754 176.622 236.716 176.17 238.787C175.719 240.858 175.679 242.998 176.055 245.085L181.669 276.28C182.438 280.488 184.845 284.22 188.361 286.656C191.877 289.092 196.216 290.033 200.426 289.274Z" fill="black"/>
<path d="M243.875 351.567L235.928 352.998C234.562 353.243 233.159 353.195 231.813 352.856C230.467 352.518 229.208 351.897 228.12 351.034C227.032 350.171 226.14 349.087 225.504 347.854C224.867 346.62 224.5 345.265 224.428 343.879L221.157 280.945C221.03 278.567 221.777 276.224 223.256 274.358C224.736 272.492 226.846 271.232 229.191 270.814L243.888 268.161C245.466 267.879 247.089 267.99 248.614 268.483C250.14 268.975 251.521 269.836 252.636 270.987C253.751 272.139 254.566 273.547 255.009 275.087C255.453 276.628 255.511 278.254 255.179 279.822L249.268 307.488C249.068 308.441 249.009 309.418 249.095 310.388L251.835 341.078C252.054 343.503 251.359 345.923 249.886 347.864C248.414 349.804 246.271 351.124 243.875 351.567Z" fill="#6C5ECF"/>
<path opacity="0.2" d="M243.888 268.136L229.191 270.777C226.849 271.2 224.741 272.462 223.263 274.326C221.784 276.191 221.036 278.531 221.157 280.908L222.231 301.799C231.922 300.154 241.638 298.784 251.378 297.69L255.179 279.772C255.509 278.206 255.45 276.581 255.005 275.043C254.561 273.504 253.745 272.099 252.63 270.949C251.515 269.8 250.134 268.942 248.61 268.452C247.086 267.961 245.464 267.853 243.888 268.136Z" fill="black"/>
<path d="M256.03 326.837L242.666 329.231L242.777 306.057L256.141 303.65L256.03 326.837Z" fill="#6C5ECF"/>
<path d="M258.054 314.88C258.054 321.284 257.116 326.64 256.03 326.825C254.944 327.01 254.081 322 254.105 315.595C254.13 309.191 255.043 303.848 256.141 303.65C257.24 303.453 258.091 308.5 258.054 314.88Z" fill="#6C5ECF"/>
<path opacity="0.2" d="M258.054 314.88C258.054 321.284 257.116 326.64 256.03 326.825C254.944 327.01 254.081 322 254.105 315.595C254.13 309.191 255.043 303.848 256.141 303.65C257.24 303.453 258.091 308.5 258.054 314.88Z" fill="black"/>
<path d="M201.389 210.656C196.997 211.458 193.102 213.968 190.558 217.637C188.013 221.305 187.027 225.833 187.815 230.227L197.859 286.041C198.658 290.435 201.168 294.332 204.837 296.877C208.507 299.421 213.036 300.406 217.431 299.615C250.23 293.719 283.536 291.111 316.854 291.829L351.122 292.581L329.182 170.625L297.32 183.274C266.336 195.577 234.199 204.75 201.389 210.656Z" fill="#6C5ECF"/>
<path opacity="0.3" d="M289.373 186.334L308.327 291.73C309.993 291.73 311.671 291.73 313.337 291.73L294.038 184.495C292.458 185.186 290.928 185.779 289.373 186.334Z" fill="black"/>
<path d="M345.298 230.758C351.357 264.434 353.936 292.149 351.098 292.668C348.259 293.186 341.016 266.297 334.957 232.621C328.898 198.945 326.319 171.23 329.157 170.712C331.995 170.193 339.239 197.02 345.298 230.758Z" fill="#6C5ECF"/>
<path opacity="0.2" d="M345.298 230.758C351.357 264.434 353.936 292.149 351.098 292.668C348.259 293.186 341.016 266.297 334.957 232.621C328.898 198.945 326.319 171.23 329.157 170.712C331.995 170.193 339.239 197.02 345.298 230.758Z" fill="black"/>
<path opacity="0.2" d="M166.763 208.435L175.055 214.124C174.814 215.418 174.686 216.731 174.673 218.048C171.699 218.048 167.417 215.284 166.874 212.223C166.609 210.978 166.571 209.694 166.763 208.435Z" fill="black"/>
<path d="M173.76 176.808C178.77 177.264 186.322 190.727 181.299 195.466C176.277 200.204 164.27 175.931 173.76 176.808Z" fill="#263238"/>
<path d="M156.175 196.009C159.1 204.893 160.346 210.261 166.146 213.445C174.858 218.233 185.001 210.508 184.816 200.772C184.656 192.01 179.88 178.955 170.082 178.19C167.861 178.054 165.64 178.461 163.612 179.376C161.583 180.29 159.808 181.685 158.439 183.439C157.07 185.193 156.148 187.254 155.754 189.444C155.359 191.634 155.504 193.887 156.175 196.009Z" fill="#FFC3BD"/>
<path d="M180.164 175.364C177.729 174.867 175.242 174.672 172.76 174.784C174.203 173.454 175.513 171.987 176.672 170.403C174.351 171.992 171.776 173.174 169.058 173.895C169.512 172.759 169.795 171.561 169.897 170.341C168.009 172.612 164.801 174.154 161.333 175.45C162.811 173.608 163.952 171.519 164.702 169.28C162.542 173.266 154.435 176.684 149.326 180.078H149.252C148.893 180.29 148.551 180.529 148.228 180.793C147.81 181.087 147.451 181.455 147.167 181.879C146.684 182.413 146.32 183.045 146.1 183.73C145.879 184.416 145.808 185.141 145.889 185.857C145.971 186.572 146.204 187.262 146.573 187.881C146.943 188.499 147.439 189.032 148.031 189.444C147.096 190.106 146.428 191.079 146.145 192.189C145.863 193.3 145.984 194.474 146.488 195.503C146.414 193.775 146.821 191.887 148.068 191.122C145.97 197.193 153.004 202.919 159.272 204.535C162.974 205.473 165.245 191.307 161.74 185.705C166.491 185.1 170.551 183.915 172.982 182.237C171.152 182.831 169.21 182.996 167.306 182.718C171.871 180.917 176.783 178.375 180.658 179.016C178.792 178.337 176.819 177.999 174.833 178.017C176.146 177.478 177.548 177.19 178.967 177.165C183.126 177.338 185.865 180.867 184.804 183.237C186.396 180.682 185.816 176.561 180.164 175.364Z" fill="#263238"/>
<path d="M154.67 207.312C155.537 208.077 156.551 208.656 157.65 209.014C158.75 209.373 159.91 209.503 161.062 209.397C164.184 209.101 164.764 205.992 163.135 203.598C161.629 201.45 158.199 199.007 155.435 200.5C154.839 200.818 154.33 201.276 153.952 201.834C153.573 202.392 153.335 203.034 153.26 203.705C153.185 204.375 153.274 205.054 153.519 205.682C153.765 206.311 154.16 206.87 154.67 207.312Z" fill="#FFC3BD"/>
<path d="M203.437 309.314C203.437 309.314 229.351 380.553 226.599 409.614C223.774 439.859 206.263 491.058 206.263 491.058H190.11C190.11 491.058 199.587 441.698 200.599 411.971C201.697 379.603 172.032 338.671 170.218 313.732L203.437 309.314Z" fill="#6C5ECF"/>
<path opacity="0.2" d="M177.005 333.871C176.424 333.498 175.793 333.211 175.129 333.02C180.806 348.309 189.999 366.14 195.651 383.54C196.268 354.775 190.036 341.966 177.005 333.871Z" fill="black"/>
<path d="M185.507 311.671C185.507 311.671 192.911 382.133 185.396 409.416C177.165 439.304 153.473 491.009 153.473 491.009H136.011C136.011 491.009 151.214 441.772 156.644 412.156C162.542 380.072 154.633 339.831 152.942 315.978L185.507 311.671Z" fill="#6C5ECF"/>
<path d="M156.545 491.391H134.37L135.863 484.851H159.606L156.545 491.391Z" fill="#6C5ECF"/>
<path opacity="0.4" d="M156.545 491.391H134.37L135.863 484.851H159.606L156.545 491.391Z" fill="black"/>
<path d="M209.842 491.391H187.901L188.259 485.172L211.063 484.851L209.842 491.391Z" fill="#6C5ECF"/>
<path opacity="0.4" d="M209.842 491.391H187.901L188.259 485.172L211.063 484.851L209.842 491.391Z" fill="black"/>
<path d="M170.625 194.145C170.81 194.873 171.366 195.379 171.859 195.194C172.353 195.009 172.575 194.318 172.39 193.578C172.205 192.837 171.649 192.344 171.156 192.529C170.662 192.714 170.428 193.405 170.625 194.145Z" fill="#263238"/>
<path d="M178.93 191.467C179.127 192.208 179.67 192.701 180.164 192.529C180.658 192.356 180.892 191.64 180.695 190.912C180.497 190.184 179.954 189.678 179.461 189.851C178.967 190.024 178.794 190.727 178.93 191.467Z" fill="#263238"/>
<path d="M176.462 192.689C177.926 194.654 179.667 196.396 181.632 197.86C181.23 198.38 180.722 198.809 180.141 199.117C179.56 199.426 178.92 199.607 178.264 199.649L176.462 192.689Z" fill="#ED847E"/>
<path d="M176.61 202.376C175.651 202.726 174.621 202.832 173.611 202.686C172.601 202.539 171.643 202.145 170.823 201.537C170.801 201.516 170.784 201.491 170.772 201.464C170.76 201.436 170.754 201.406 170.754 201.376C170.754 201.346 170.76 201.317 170.772 201.289C170.784 201.262 170.801 201.237 170.823 201.216C170.864 201.176 170.919 201.154 170.977 201.154C171.034 201.154 171.09 201.176 171.131 201.216C171.9 201.767 172.791 202.124 173.729 202.255C174.666 202.386 175.621 202.288 176.511 201.969C176.539 201.959 176.568 201.956 176.597 201.958C176.626 201.961 176.654 201.969 176.68 201.983C176.705 201.997 176.728 202.016 176.745 202.039C176.763 202.062 176.776 202.089 176.783 202.117C176.788 202.173 176.774 202.23 176.742 202.277C176.711 202.324 176.664 202.359 176.61 202.376Z" fill="#263238"/>
<path d="M167.404 192.257C167.311 192.282 167.214 192.282 167.121 192.257C167.065 192.237 167.014 192.205 166.972 192.165C166.929 192.124 166.895 192.075 166.872 192.021C166.848 191.966 166.837 191.908 166.837 191.849C166.837 191.79 166.85 191.731 166.874 191.677C167.129 190.988 167.539 190.366 168.071 189.859C168.604 189.352 169.245 188.974 169.946 188.753C170.003 188.738 170.062 188.735 170.12 188.744C170.178 188.753 170.234 188.774 170.283 188.805C170.333 188.836 170.376 188.877 170.409 188.926C170.442 188.974 170.465 189.028 170.477 189.086C170.494 189.206 170.467 189.328 170.401 189.43C170.336 189.532 170.235 189.607 170.119 189.641C169.557 189.815 169.042 190.116 168.614 190.52C168.186 190.925 167.857 191.422 167.651 191.973C167.607 192.096 167.519 192.197 167.404 192.257Z" fill="#263238"/>
<path d="M181.904 187.432C181.825 187.458 181.74 187.462 181.66 187.442C181.579 187.422 181.505 187.381 181.447 187.321C181.095 186.885 180.64 186.544 180.123 186.329C179.606 186.114 179.043 186.03 178.486 186.087C178.429 186.1 178.371 186.1 178.315 186.088C178.258 186.077 178.205 186.053 178.158 186.019C178.112 185.986 178.073 185.942 178.044 185.892C178.015 185.842 177.998 185.787 177.992 185.729C177.98 185.609 178.012 185.489 178.083 185.392C178.153 185.294 178.257 185.225 178.375 185.199C179.063 185.111 179.763 185.198 180.409 185.45C181.056 185.702 181.629 186.112 182.077 186.642C182.158 186.729 182.204 186.844 182.204 186.963C182.204 187.083 182.158 187.197 182.077 187.284C182.037 187.351 181.976 187.403 181.904 187.432Z" fill="#263238"/>
<path d="M154.077 241.247C155.138 245.381 156.249 249.725 157.446 253.933C158.643 258.14 159.84 262.373 161.148 266.519C162.456 270.666 163.912 274.762 165.455 278.736C166.899 282.57 168.644 286.284 170.675 289.842C170.921 290.224 171.156 290.669 171.403 291.014L171.785 291.57L171.97 291.841C172.323 292.268 172.739 292.638 173.204 292.939C174.773 294.027 176.423 294.992 178.14 295.827C181.842 297.665 185.877 299.356 189.95 300.948C198.119 304.132 206.584 307.118 214.975 309.981L213.346 316.953C204.294 315.643 195.328 313.797 186.494 311.425C181.956 310.216 177.489 308.749 173.118 307.032C170.708 306.091 168.38 304.952 166.158 303.626C164.703 302.753 163.375 301.686 162.209 300.454L161.654 299.862L161.345 299.467L160.716 298.653C160.284 298.11 159.951 297.579 159.569 297.036C156.868 292.95 154.547 288.625 152.633 284.116C150.708 279.81 149.08 275.478 147.562 271.073C144.533 262.373 141.991 253.512 139.948 244.529L154.077 241.247Z" fill="#FFC3BD"/>
<path d="M138.27 238.791C133.581 249.725 141.207 274.664 141.207 274.664L164.036 268.802C162.625 260.003 160.592 251.314 157.952 242.802C154.003 231.116 141.91 230.375 138.27 238.791Z" fill="#263238"/>
<path d="M149.043 504.472C148.209 504.451 147.381 504.335 146.574 504.126C146.533 504.114 146.495 504.091 146.466 504.058C146.438 504.025 146.42 503.984 146.414 503.941C146.413 503.896 146.423 503.852 146.445 503.813C146.467 503.774 146.499 503.741 146.537 503.719C146.895 503.497 150.079 501.609 151.103 502.152C151.217 502.213 151.31 502.307 151.372 502.421C151.433 502.535 151.46 502.664 151.449 502.793C151.467 503.027 151.428 503.261 151.336 503.476C151.243 503.691 151.1 503.88 150.918 504.027C150.359 504.379 149.7 504.535 149.043 504.472ZM147.241 503.805C148.353 504.178 149.565 504.116 150.634 503.632C150.754 503.535 150.849 503.41 150.912 503.268C150.974 503.127 151.001 502.972 150.992 502.818C150.996 502.765 150.986 502.711 150.962 502.664C150.938 502.616 150.901 502.575 150.856 502.547C150.326 502.238 148.524 503.089 147.241 503.805Z" fill="#6C5ECF"/>
<path d="M146.612 504.126H146.5C146.467 504.106 146.44 504.076 146.423 504.041C146.406 504.006 146.398 503.967 146.402 503.929C146.402 503.805 146.809 501.053 147.969 500.153C148.102 500.039 148.258 499.955 148.426 499.906C148.594 499.857 148.77 499.844 148.944 499.869C149.11 499.864 149.272 499.92 149.4 500.027C149.527 500.134 149.611 500.284 149.635 500.449C149.771 501.522 147.747 503.608 146.723 504.151C146.684 504.156 146.644 504.148 146.612 504.126ZM148.771 500.264C148.577 500.27 148.391 500.339 148.24 500.461C147.528 501.311 147.074 502.347 146.932 503.447C147.957 502.707 149.265 501.127 149.178 500.498C149.178 500.498 149.178 500.313 148.87 500.276L148.771 500.264Z" fill="#6C5ECF"/>
<path d="M204.572 504.472C203.572 504.451 202.577 504.335 201.599 504.126C201.553 504.12 201.51 504.099 201.479 504.065C201.447 504.031 201.428 503.987 201.426 503.941C201.421 503.893 201.432 503.844 201.456 503.802C201.481 503.76 201.517 503.727 201.562 503.706C202.006 503.484 205.942 501.535 207.065 502.189C207.17 502.248 207.258 502.334 207.318 502.438C207.379 502.542 207.411 502.66 207.411 502.781C207.419 502.99 207.379 503.198 207.294 503.388C207.208 503.579 207.079 503.747 206.917 503.879C206.224 504.334 205.398 504.542 204.572 504.472ZM202.364 503.805C204.449 504.151 206.066 504.064 206.633 503.546C206.74 503.459 206.825 503.347 206.881 503.221C206.937 503.094 206.962 502.956 206.954 502.818C206.958 502.771 206.948 502.724 206.927 502.683C206.905 502.641 206.871 502.607 206.831 502.584C206.214 502.238 203.98 503.052 202.376 503.805H202.364Z" fill="#6C5ECF"/>
<path d="M201.636 504.126C201.595 504.138 201.552 504.138 201.512 504.126C201.48 504.102 201.455 504.07 201.44 504.033C201.425 503.996 201.42 503.956 201.426 503.916C201.599 502.539 202.189 501.247 203.116 500.214C203.463 499.931 203.904 499.79 204.35 499.819C204.967 499.893 205.128 500.202 205.165 500.461C205.276 501.535 202.87 503.595 201.697 504.163L201.636 504.126ZM204.19 500.264C203.896 500.264 203.611 500.369 203.388 500.56C202.63 501.375 202.131 502.397 201.956 503.497C203.19 502.793 204.819 501.177 204.745 500.523C204.745 500.523 204.745 500.313 204.326 500.276L204.19 500.264Z" fill="#6C5ECF"/>
<path d="M213.161 309.82L222.7 308.253L218.862 320.112C218.862 320.112 210.545 319.631 210.557 315.09L213.161 309.82Z" fill="#FFC3BD"/>
<path d="M231.733 312.659L228.08 322.234L218.862 320.112L222.7 308.253L231.733 312.659Z" fill="#FFC3BD"/>
<path d="M484.135 177.116L470.154 125.165C469.882 124.152 469.413 123.202 468.774 122.37C468.135 121.539 467.338 120.841 466.43 120.317C465.521 119.794 464.518 119.454 463.478 119.318C462.438 119.182 461.381 119.253 460.368 119.525L359.18 146.673C357.134 147.225 355.39 148.567 354.332 150.405C353.275 152.242 352.99 154.424 353.541 156.471L367.51 208.423C368.059 210.469 369.399 212.213 371.233 213.273C373.068 214.333 375.248 214.621 377.296 214.074L391.573 210.237L411.231 221.552L407.047 206.078L478.496 186.877C480.534 186.325 482.272 184.988 483.328 183.159C484.385 181.33 484.675 179.158 484.135 177.116Z" fill="#6C5ECF"/>
<path opacity="0.2" d="M484.135 177.116L470.154 125.165C469.882 124.152 469.413 123.202 468.774 122.37C468.135 121.539 467.338 120.841 466.43 120.317C465.521 119.794 464.518 119.454 463.478 119.318C462.438 119.182 461.381 119.253 460.368 119.525L359.18 146.673C357.134 147.225 355.39 148.567 354.332 150.405C353.275 152.242 352.99 154.424 353.541 156.471L367.51 208.423C368.059 210.469 369.399 212.213 371.233 213.273C373.068 214.333 375.248 214.621 377.296 214.074L391.573 210.237L411.231 221.552L407.047 206.078L478.496 186.877C480.534 186.325 482.272 184.988 483.328 183.159C484.385 181.33 484.675 179.158 484.135 177.116Z" fill="black"/>
<path d="M525.363 285.893L530.768 250.724C530.981 249.34 530.635 247.928 529.806 246.798C528.978 245.669 527.735 244.915 526.35 244.702L457.814 234.164C457.128 234.057 456.428 234.086 455.754 234.251C455.08 234.415 454.445 234.711 453.885 235.122C453.326 235.532 452.853 236.049 452.493 236.643C452.134 237.237 451.896 237.895 451.792 238.582L446.375 273.751C446.162 275.135 446.508 276.547 447.337 277.676C448.165 278.806 449.408 279.56 450.793 279.772L460.455 281.266L469.327 293.359L470.944 282.87L519.292 290.274C519.978 290.387 520.68 290.362 521.357 290.203C522.035 290.044 522.674 289.752 523.238 289.345C523.802 288.938 524.28 288.424 524.645 287.831C525.01 287.239 525.254 286.58 525.363 285.893Z" fill="#6C5ECF"/>
<path opacity="0.3" d="M525.363 285.893L530.768 250.724C530.981 249.34 530.635 247.928 529.806 246.798C528.978 245.669 527.735 244.915 526.35 244.702L457.814 234.164C457.128 234.057 456.428 234.086 455.754 234.251C455.08 234.415 454.445 234.711 453.885 235.122C453.326 235.532 452.853 236.049 452.493 236.643C452.134 237.237 451.896 237.895 451.792 238.582L446.375 273.751C446.162 275.135 446.508 276.547 447.337 277.676C448.165 278.806 449.408 279.56 450.793 279.772L460.455 281.266L469.327 293.359L470.944 282.87L519.292 290.274C519.978 290.387 520.68 290.362 521.357 290.203C522.035 290.044 522.674 289.752 523.238 289.345C523.802 288.938 524.28 288.424 524.645 287.831C525.01 287.239 525.254 286.58 525.363 285.893Z" fill="white"/>
<path d="M522.932 228.882L514.121 165.948C513.773 163.466 512.452 161.224 510.451 159.715C508.449 158.206 505.93 157.554 503.447 157.903L380.775 175.055C378.293 175.404 376.051 176.724 374.542 178.726C373.033 180.728 372.381 183.247 372.73 185.729L381.54 248.663C381.71 249.893 382.121 251.076 382.749 252.146C383.377 253.217 384.21 254.152 385.201 254.9C386.191 255.647 387.32 256.192 388.521 256.502C389.723 256.813 390.974 256.883 392.202 256.709L409.478 254.241L430.888 270.394L428.26 251.613L514.85 239.507C517.327 239.164 519.568 237.853 521.083 235.862C522.598 233.871 523.262 231.362 522.932 228.882Z" fill="#6C5ECF"/>
<path d="M392.943 202.697L399.89 201.722L410.811 213.766L408.948 200.451L415.957 199.476L419.326 223.539L412.316 224.526L401.457 212.569L403.308 225.785L396.311 226.76L392.943 202.697Z" fill="white"/>
<path d="M420.88 198.785L440.822 195.996L441.538 201.142L429.062 202.882L429.592 206.707L441.167 205.091L441.858 210.027L430.283 211.643L430.937 216.382L443.783 214.593L444.548 220.035L424.249 222.873L420.88 198.785Z" fill="white"/>
<path d="M442.71 195.737L449.768 194.75L454.198 207.867L456.037 193.874L463.071 192.887L468.686 205.819L469.352 192.01L476.373 191.023L474.436 215.839L467.143 216.851L460.8 202.29L458.715 218.035L451.422 219.047L442.71 195.737Z" fill="white"/>
<path d="M479.755 206.966L486.776 205.535C486.968 206.45 487.393 207.3 488.01 208.003C488.472 208.433 489.03 208.747 489.636 208.921C490.243 209.094 490.883 209.122 491.502 209.003C492.392 208.937 493.227 208.546 493.847 207.904C494.083 207.662 494.262 207.37 494.371 207.05C494.48 206.73 494.516 206.389 494.476 206.053C494.422 205.733 494.3 205.428 494.116 205.159C493.933 204.891 493.694 204.665 493.415 204.498C492.16 203.925 490.796 203.63 489.417 203.635C486.83 203.578 484.293 202.909 482.013 201.685C481.258 201.213 480.619 200.578 480.143 199.826C479.667 199.074 479.365 198.225 479.261 197.341C479.082 196.076 479.289 194.786 479.853 193.639C480.487 192.364 481.483 191.304 482.716 190.591C484.508 189.623 486.476 189.023 488.504 188.827C490.948 188.328 493.487 188.582 495.784 189.555C496.719 190.087 497.528 190.814 498.157 191.687C498.785 192.56 499.217 193.559 499.424 194.614L492.477 196.009C492.256 195.116 491.722 194.332 490.972 193.8C490.183 193.376 489.272 193.236 488.393 193.405C487.689 193.45 487.025 193.743 486.517 194.232C486.335 194.419 486.198 194.645 486.117 194.893C486.036 195.141 486.012 195.404 486.048 195.663C486.083 195.865 486.163 196.057 486.283 196.224C486.403 196.39 486.559 196.528 486.739 196.626C487.562 196.989 488.455 197.17 489.355 197.156C491.818 197.254 494.262 197.639 496.636 198.304C497.97 198.717 499.163 199.495 500.079 200.55C500.873 201.536 501.377 202.724 501.535 203.98C501.757 205.496 501.52 207.043 500.856 208.423C500.167 209.864 499.068 211.07 497.697 211.89C495.954 212.878 494.025 213.495 492.033 213.704C487.92 214.28 484.974 213.869 483.197 212.47C481.438 211.097 480.219 209.149 479.755 206.966Z" fill="white"/>
</svg>
