<svg width="58" height="58" viewBox="0 0 58 58" fill="none" xmlns="http://www.w3.org/2000/svg">
<path d="M46.0858 11.9141L42.6783 15.3216C46.1583 18.8258 48.3333 23.6591 48.3333 29C48.3333 39.6816 39.6817 48.3333 29 48.3333C18.3183 48.3333 9.66666 39.6816 9.66666 29C9.66666 19.14 17.0375 11.02 26.5833 9.83581V14.7175C19.72 15.8775 14.5 21.8225 14.5 29C14.5 36.9991 21.0008 43.5 29 43.5C36.9992 43.5 43.5 36.9991 43.5 29C43.5 24.9883 41.8808 21.3633 39.2467 18.7533L35.8392 22.1608C37.5792 23.925 38.6667 26.3416 38.6667 29C38.6667 34.3408 34.3408 38.6666 29 38.6666C23.6592 38.6666 19.3333 34.3408 19.3333 29C19.3333 24.505 22.4267 20.7591 26.5833 19.6716V24.8433C25.1333 25.6891 24.1667 27.2116 24.1667 29C24.1667 31.6583 26.3417 33.8333 29 33.8333C31.6583 33.8333 33.8333 31.6583 33.8333 29C33.8333 27.2116 32.8667 25.665 31.4167 24.8433V4.83331H29C15.66 4.83331 4.83333 15.66 4.83333 29C4.83333 42.34 15.66 53.1666 29 53.1666C42.34 53.1666 53.1667 42.34 53.1667 29C53.1667 22.33 50.46 16.2883 46.0858 11.9141Z" fill="url(#paint0_linear)"/>
<defs>
<linearGradient id="paint0_linear" x1="-2.66667" y1="7.63633" x2="67.586" y2="72.1787" gradientUnits="userSpaceOnUse">
<stop offset="0.0001" stop-color="#6D5FCF"/>
<stop offset="1" stop-color="#1D5CA6" stop-opacity="0.58"/>
</linearGradient>
</defs>
</svg>
