<?xml version="1.0" encoding="utf-8"?>
<!-- Generator: Adobe Illustrator 24.0.1, SVG Export Plug-In . SVG Version: 6.00 Build 0)  -->
<svg version="1.1" id="Layer_1" xmlns="http://www.w3.org/2000/svg" xmlns:xlink="http://www.w3.org/1999/xlink" x="0px" y="0px"
	 viewBox="0 0 512 512" style="enable-background:new 0 0 512 512;" xml:space="preserve">
<style type="text/css">
	.st0{fill:#404040;}
	.st1{fill:none;stroke:#404040;stroke-width:4;stroke-miterlimit:10;}
</style>
<g>
	<path class="st0" d="M77.9,226.5C77,95.8,165,14.9,274.2,23.8C376.5,32.1,449.5,131,431.4,237.3C413.1,343.9,348,419.5,266.2,483.7
		c-5,3.9-11.6,8.6-16.4,1.4c-5.9-8.6,3.2-12.4,8.3-16.3C312.3,427,358,377.8,388.6,316c24-48.4,36.2-99.4,23.5-153.3
		C393.4,83.3,318.2,31.8,235.8,40.9c-78.8,8.7-140.6,78.3-141.1,159c-0.6,83.5,36.9,150.1,92.3,208.8c11.1,11.8,23.3,22.5,34.8,33.9
		c4.2,4.2,11.2,8.7,4.3,15.6c-5.3,5.3-10.4,1.3-14.7-2.6C135.7,388.4,79.9,310.7,77.9,226.5z"/>
</g>
<g>
	<polygon class="st1" points="306,214.6 252.8,141.4 199.5,214.6 199.5,300.3 306,300.3 	"/>
	<polygon class="st1" points="184.6,214.6 199.5,214.6 252.8,141.4 306,214.6 320.9,214.6 252.8,123 	"/>
	<path class="st1" d="M225.7,242.1c0-15,12.1-27.1,27.1-27.1c15,0,27.1,12.1,27.1,27.1v58.2h-54.2V242.1z"/>
	<circle class="st1" cx="252.8" cy="187.1" r="12.1"/>
	<line class="st1" x1="252.8" y1="123" x2="252.8" y2="102.2"/>
	<line class="st1" x1="261.5" y1="110.1" x2="244.1" y2="110.1"/>
	<path class="st1" d="M186,229.6h13.5v70.7h-40.9v-43.4C158.6,241.8,170.9,229.6,186,229.6z"/>
	<path class="st1" d="M319.6,229.6H306v70.7h40.9v-43.4C346.9,241.8,334.7,229.6,319.6,229.6z"/>
</g>
</svg>
