<svg width="54" height="54" viewBox="0 0 54 54" fill="none" xmlns="http://www.w3.org/2000/svg">
<path d="M36 9H40.5C41.6935 9 42.8381 9.47411 43.682 10.318C44.5259 11.1619 45 12.3065 45 13.5V45C45 46.1935 44.5259 47.3381 43.682 48.182C42.8381 49.0259 41.6935 49.5 40.5 49.5H13.5C12.3065 49.5 11.1619 49.0259 10.318 48.182C9.47411 47.3381 9 46.1935 9 45V13.5C9 12.3065 9.47411 11.1619 10.318 10.318C11.1619 9.47411 12.3065 9 13.5 9H18" stroke="url(#paint0_linear)" stroke-width="2" stroke-linecap="round" stroke-linejoin="round"/>
<path d="M33.75 4.5H20.25C19.0074 4.5 18 5.50736 18 6.75V11.25C18 12.4926 19.0074 13.5 20.25 13.5H33.75C34.9926 13.5 36 12.4926 36 11.25V6.75C36 5.50736 34.9926 4.5 33.75 4.5Z" stroke="url(#paint1_linear)" stroke-width="2" stroke-linecap="round" stroke-linejoin="round"/>
<defs>
<linearGradient id="paint0_linear" x1="9" y1="9" x2="43.3125" y2="9" gradientUnits="userSpaceOnUse">
<stop offset="0.338542" stop-color="#1C5CA6"/>
<stop offset="0.338642" stop-color="#1E5CA7"/>
<stop offset="0.859375" stop-color="#6C5ECF"/>
</linearGradient>
<linearGradient id="paint1_linear" x1="18" y1="4.5" x2="35.1563" y2="4.5" gradientUnits="userSpaceOnUse">
<stop offset="0.338542" stop-color="#1C5CA6"/>
<stop offset="0.338642" stop-color="#1E5CA7"/>
<stop offset="0.859375" stop-color="#6C5ECF"/>
</linearGradient>
</defs>
</svg>
