<svg width="18" height="18" viewBox="0 0 18 18" fill="none" xmlns="http://www.w3.org/2000/svg">
<path d="M14.8187 15.4614C14.7342 15.4614 14.6505 15.4448 14.5725 15.4124C14.4945 15.38 14.4237 15.3325 14.364 15.2727L2.72576 3.63592C2.60505 3.51521 2.53723 3.35149 2.53723 3.18078C2.53723 3.01007 2.60505 2.84635 2.72576 2.72564C2.84647 2.60492 3.01019 2.53711 3.1809 2.53711C3.35161 2.53711 3.51533 2.60492 3.63604 2.72564L15.2743 14.3639C15.364 14.4539 15.425 14.5685 15.4497 14.6931C15.4744 14.8177 15.4616 14.9469 15.413 15.0643C15.3643 15.1816 15.2821 15.282 15.1765 15.3527C15.0709 15.4234 14.9468 15.4612 14.8197 15.4614H14.8187Z" fill="#808191"/>
<path d="M3.18137 15.4614C3.05423 15.4614 2.92994 15.4237 2.8242 15.3531C2.71847 15.2825 2.63602 15.1822 2.58726 15.0647C2.53851 14.9473 2.52564 14.8181 2.55028 14.6933C2.57492 14.5686 2.63597 14.454 2.72571 14.3639L14.364 2.72564C14.4847 2.60492 14.6484 2.53711 14.8191 2.53711C14.9899 2.53711 15.1536 2.60492 15.2743 2.72564C15.395 2.84635 15.4628 3.01007 15.4628 3.18078C15.4628 3.35149 15.395 3.51521 15.2743 3.63592L3.63599 15.2742C3.57625 15.3338 3.50535 15.381 3.42733 15.4131C3.34932 15.4452 3.26573 15.4616 3.18137 15.4614Z" fill="#808191"/>
</svg>
