<?xml version="1.0"?>
<svg xmlns="http://www.w3.org/2000/svg" xmlns:xlink="http://www.w3.org/1999/xlink" xmlns:svgjs="http://svgjs.com/svgjs" version="1.1" width="512" height="512" x="0" y="0" viewBox="0 0 512 512" style="enable-background:new 0 0 512 512" xml:space="preserve" class=""><g><g xmlns="http://www.w3.org/2000/svg"><g><path d="m175.075 187.352-16.996 16.996-9.083-9.083c-2.928-2.93-7.677-2.929-10.606 0s-2.929 7.677 0 10.606l14.387 14.387c1.406 1.407 3.314 2.197 5.303 2.197s3.897-.79 5.303-2.197l22.299-22.3c2.929-2.929 2.929-7.678 0-10.606-2.929-2.929-7.678-2.929-10.607 0z" fill="#3f4359" data-original="#000000" style="" class=""/><path d="m175.075 256.795-16.996 16.996-9.083-9.083c-2.929-2.929-7.678-2.929-10.606 0-2.929 2.929-2.929 7.678 0 10.606l14.387 14.387c1.464 1.464 3.384 2.197 5.303 2.197s3.839-.732 5.303-2.197l22.299-22.299c2.929-2.929 2.929-7.678 0-10.606-2.929-2.929-7.678-2.929-10.607-.001z" fill="#3f4359" data-original="#000000" style="" class=""/><path d="m209.75 293.14h107.391c4.142 0 7.5-3.358 7.5-7.5s-3.358-7.5-7.5-7.5h-107.391c-4.142 0-7.5 3.358-7.5 7.5s3.358 7.5 7.5 7.5z" fill="#3f4359" data-original="#000000" style="" class=""/><path d="m175.075 326.238-16.996 16.996-9.083-9.083c-2.929-2.929-7.678-2.929-10.606 0-2.929 2.929-2.929 7.678 0 10.606l14.387 14.387c1.464 1.464 3.384 2.197 5.303 2.197s3.839-.732 5.303-2.197l22.299-22.299c2.929-2.929 2.929-7.678 0-10.606-2.929-2.929-7.678-2.929-10.607-.001z" fill="#3f4359" data-original="#000000" style="" class=""/><path d="m317.141 322.8h-107.391c-4.142 0-7.5 3.358-7.5 7.5s3.358 7.5 7.5 7.5h107.391c4.142 0 7.5-3.358 7.5-7.5s-3.358-7.5-7.5-7.5z" fill="#3f4359" data-original="#000000" style="" class=""/><path d="m317.141 347.583h-107.391c-4.142 0-7.5 3.358-7.5 7.5s3.358 7.5 7.5 7.5h107.391c4.142 0 7.5-3.358 7.5-7.5s-3.358-7.5-7.5-7.5z" fill="#3f4359" data-original="#000000" style="" class=""/><path d="m175.075 395.681-16.996 16.997-9.083-9.083c-2.929-2.929-7.678-2.929-10.606 0-2.929 2.929-2.929 7.678 0 10.606l14.387 14.387c1.406 1.407 3.314 2.197 5.303 2.197s3.897-.79 5.303-2.197l22.299-22.3c2.929-2.929 2.929-7.678 0-10.606-2.929-2.93-7.678-2.93-10.607-.001z" fill="#3f4359" data-original="#000000" style="" class=""/><path d="m317.141 392.243h-107.391c-4.142 0-7.5 3.358-7.5 7.5s3.358 7.5 7.5 7.5h107.391c4.142 0 7.5-3.358 7.5-7.5s-3.358-7.5-7.5-7.5z" fill="#3f4359" data-original="#000000" style="" class=""/><path d="m324.641 424.525c0-4.142-3.358-7.5-7.5-7.5h-107.391c-4.142 0-7.5 3.358-7.5 7.5s3.358 7.5 7.5 7.5h107.391c4.142 0 7.5-3.358 7.5-7.5z" fill="#3f4359" data-original="#000000" style="" class=""/><path d="m438.714 230.678c-4.048-.897-8.05 1.655-8.945 5.699-5.778 26.072-29.377 44.996-56.114 44.996-31.701 0-57.492-25.791-57.492-57.492s25.791-57.492 57.492-57.492c24.647 0 46.525 15.681 54.442 39.021 1.331 3.923 5.592 6.026 9.512 4.693 3.922-1.331 6.024-5.589 4.693-9.512-7.795-22.983-26.329-40.076-48.876-46.462v-49.896c0-6.893-5.607-12.5-12.5-12.5h-64.63c-.359-6.573-5.804-11.814-12.465-11.814h-49.949v-14.937c8.104-6.744 13.273-16.901 13.273-28.244 0-20.257-16.481-36.738-36.739-36.738-20.257 0-36.738 16.481-36.738 36.738 0 11.343 5.169 21.499 13.273 28.243v14.936h-49.949c-6.661 0-12.106 5.241-12.465 11.814h-64.63c-6.893 0-12.5 5.607-12.5 12.5v395.269c0 6.893 5.607 12.5 12.5 12.5h301.019c6.893 0 12.5-5.607 12.5-12.5v-128.028l1.407 1.096c3.19 2.484 7.429 2.926 11.062 1.15 3.633-1.775 5.89-5.391 5.89-9.434v-78.756c2.618-1.618 5.138-3.406 7.541-5.358 12.664-10.293 21.574-24.693 25.087-40.547.897-4.044-1.655-8.049-5.699-8.945zm-60.288-79.12c-1.581-.104-3.17-.169-4.771-.169-2.09 0-4.153.109-6.198.283v-23.47c0-5.79-4.71-10.5-10.5-10.5h-40.626v-10.969h62.095zm-148.01-136.558c11.987 0 21.739 9.752 21.739 21.738s-9.752 21.738-21.739 21.738c-11.986 0-21.738-9.752-21.738-21.738s9.752-21.738 21.738-21.738zm-8.465 57.481c2.72.644 5.552.995 8.465.995s5.746-.351 8.465-.995v7.437h-16.931v-7.437zm156.475 424.519h-296.019v-390.268h62.095v10.969h-40.626c-5.79 0-10.5 4.71-10.5 10.5v347.329c0 5.79 4.71 10.5 10.5 10.5h182.901c4.142 0 7.5-3.358 7.5-7.5s-3.358-7.5-7.5-7.5h-178.401v-338.328h36.126v3.124c0 6.893 5.607 12.5 12.5 12.5h26.775c4.142 0 7.5-3.358 7.5-7.5s-3.358-7.5-7.5-7.5h-24.275v-38.408h141.829v38.407h-82.554c-4.142 0-7.5 3.358-7.5 7.5s3.358 7.5 7.5 7.5h85.054c6.893 0 12.5-5.607 12.5-12.5v-3.124h36.126v21.856c-16.23 4.973-30.047 15.501-39.24 29.356h-103.467c-4.142 0-7.5 3.358-7.5 7.5s3.358 7.5 7.5 7.5h95.846c-1.164 3.163-2.103 6.432-2.82 9.782h-93.026c-4.142 0-7.5 3.358-7.5 7.5s3.358 7.5 7.5 7.5h91.418c0 .062-.005.123-.005.185 0 10.493 2.259 20.463 6.288 29.476h-97.701c-4.142 0-7.5 3.358-7.5 7.5s3.358 7.5 7.5 7.5h106.722c5.281 6.775 11.73 12.593 19.053 17.141v78.787c0 4.043 2.257 7.659 5.89 9.434 1.479.723 3.058 1.078 4.625 1.078 2.276 0 4.529-.75 6.416-2.214v98.448h-30.68c-4.142 0-7.5 3.358-7.5 7.5s3.358 7.5 7.5 7.5h35.18c5.79 0 10.5-4.71 10.5-10.5v-114.628l6.198-4.827 4.771 3.716v137.209zm18.36-141.924-16.678-12.989c-1.899-1.479-4.175-2.219-6.452-2.219-2.276 0-4.552.74-6.452 2.219l-16.678 12.989v-62.51c7.27 2.455 15.043 3.806 23.13 3.806 7.905 0 15.719-1.32 23.13-3.816z" fill="#3f4359" data-original="#000000" style="" class=""/><path d="m398.112 204.114-27.816 27.816-16.064-16.064c-2.929-2.929-7.678-2.929-10.606 0-2.929 2.929-2.929 7.678 0 10.606l21.368 21.368c1.464 1.464 3.384 2.197 5.303 2.197s3.839-.732 5.303-2.197l33.12-33.12c2.929-2.929 2.929-7.678 0-10.606-2.931-2.928-7.68-2.928-10.608 0z" fill="#3f4359" data-original="#000000" style="" class=""/><path d="m273.652 114.122c0-4.142-3.358-7.5-7.5-7.5h-71.471c-4.142 0-7.5 3.358-7.5 7.5s3.358 7.5 7.5 7.5h71.471c4.142 0 7.5-3.358 7.5-7.5z" fill="#3f4359" data-original="#000000" style="" class=""/></g></g></g></svg>
