<svg width="52" height="52" viewBox="0 0 52 52" fill="none" xmlns="http://www.w3.org/2000/svg">
<path d="M39.6521 7.64565C39.4621 7.64613 39.2755 7.59563 39.1117 7.4994C34.6044 5.08628 30.7074 4.06253 26.0356 4.06253C21.3871 4.06253 16.9732 5.20815 12.9584 7.4994C12.3907 7.82034 11.6909 7.5969 11.3618 7.00784C11.2149 6.72353 11.1818 6.39396 11.2692 6.0861C11.3565 5.77823 11.5578 5.51517 11.8321 5.35034C16.162 2.89454 21.0577 1.61051 26.0356 1.62503C31.0355 1.62503 35.4027 2.77065 40.1924 5.33003C40.4718 5.48368 40.6799 5.74074 40.772 6.04605C40.8641 6.35137 40.8328 6.68061 40.6849 6.96315C40.596 7.16375 40.4515 7.33466 40.2684 7.45562C40.0854 7.57658 39.8715 7.64253 39.6521 7.64565ZM6.0562 20.4425C5.81226 20.4408 5.57474 20.3642 5.37573 20.2232C5.1168 20.0307 4.94267 19.7453 4.89 19.427C4.83733 19.1088 4.91025 18.7825 5.09339 18.5169C7.41815 15.1044 10.3746 12.4232 13.8978 10.5463C21.2692 6.60159 30.7074 6.57315 38.1022 10.5219C41.6244 12.3988 44.5819 15.0557 46.9067 18.4438C47.0891 18.7096 47.1615 19.0357 47.1089 19.3537C47.0563 19.6718 46.8826 19.9571 46.6243 20.15C46.499 20.2437 46.3558 20.3106 46.2036 20.3467C46.0513 20.3828 45.8933 20.3873 45.7393 20.3599C45.5853 20.3325 45.4385 20.2738 45.3081 20.1873C45.1777 20.1009 45.0663 19.9887 44.981 19.8575C42.8685 16.7863 40.1924 14.3732 37.0226 12.6913C30.2849 9.10815 21.6684 9.10815 14.9541 12.7157C11.761 14.4219 9.08479 16.8594 6.97229 19.9266C6.8812 20.088 6.74768 20.2214 6.5862 20.3123C6.42472 20.4033 6.24144 20.4483 6.0562 20.4425ZM20.7289 49.8672C20.5738 49.8687 20.4201 49.8368 20.2784 49.7737C20.1366 49.7107 20.01 49.6178 19.9073 49.5016C17.8649 47.3769 16.7578 46.0078 15.1887 43.0625C13.5637 40.0644 12.7238 36.4081 12.7238 32.4838C12.7238 25.2444 18.6865 19.3457 26.0122 19.3457C33.3379 19.3457 39.3047 25.2444 39.3047 32.4838C39.3093 32.6408 39.2824 32.7971 39.2255 32.9436C39.1686 33.09 39.0829 33.2235 38.9735 33.3362C38.864 33.4489 38.7331 33.5385 38.5884 33.5997C38.4437 33.6608 38.2882 33.6924 38.1312 33.6924C37.9741 33.6924 37.8186 33.6608 37.6739 33.5997C37.5292 33.5385 37.3983 33.4489 37.2889 33.3362C37.1794 33.2235 37.0937 33.09 37.0368 32.9436C36.9799 32.7971 36.953 32.6408 36.9576 32.4838C36.9576 26.585 32.0501 21.7832 26.0173 21.7832C19.9845 21.7832 15.0719 26.585 15.0719 32.4838C15.0719 35.9938 15.8224 39.2356 17.2545 41.8681C18.7576 44.6713 19.7935 45.8657 21.5983 47.7669C21.8123 48.0035 21.9309 48.3111 21.9309 48.6302C21.9309 48.9492 21.8123 49.2569 21.5983 49.4935C21.3679 49.726 21.0562 49.86 20.7289 49.8672ZM37.5629 45.3578C34.7689 45.3578 32.304 44.6266 30.2849 43.1885C28.5648 41.9827 27.1595 40.3814 26.1874 38.5192C25.2153 36.657 24.7048 34.5885 24.699 32.4878C24.6924 32.3295 24.7179 32.1716 24.7739 32.0234C24.83 31.8752 24.9154 31.7399 25.0251 31.6255C25.1347 31.5112 25.2664 31.4202 25.4121 31.3581C25.5579 31.2959 25.7146 31.2639 25.8731 31.2639C26.0315 31.2639 26.1883 31.2959 26.334 31.3581C26.4797 31.4202 26.6114 31.5112 26.7211 31.6255C26.8307 31.7399 26.9162 31.8752 26.9722 32.0234C27.0282 32.1716 27.0537 32.3295 27.0471 32.4878C27.0511 34.1941 27.4672 35.8742 28.2601 37.385C29.053 38.8959 30.1992 40.1928 31.6012 41.1653C33.2678 42.3353 35.2168 42.8919 37.5649 42.8919C38.3827 42.8774 39.198 42.7958 40.0024 42.6482C40.6362 42.5263 41.2466 42.965 41.3634 43.6475C41.4229 43.9625 41.3551 44.2882 41.1748 44.5532C40.9945 44.8183 40.7164 45.001 40.4016 45.0613C39.4664 45.246 38.5161 45.344 37.5629 45.3538V45.3578ZM32.8433 50.375C32.7402 50.3707 32.6379 50.3544 32.5386 50.3263C28.8052 49.2538 26.3636 47.8156 23.8042 45.2075C20.5167 41.8194 18.7099 37.31 18.7099 32.4838C18.7099 28.535 21.9497 25.3175 25.9401 25.3175C29.9305 25.3175 33.1714 28.535 33.1714 32.4838C33.1714 35.0919 35.3549 37.2125 38.0545 37.2125C40.754 37.2125 42.9376 35.0919 42.9376 32.4838C42.9376 23.2944 35.3072 15.8357 25.9167 15.8357C19.2492 15.8357 13.1453 19.6869 10.399 25.6588C9.48495 27.6332 9.0137 29.9488 9.0137 32.4838C9.0137 34.385 9.17721 37.3831 10.5859 41.2831C10.8215 41.9169 10.5158 42.6238 9.90542 42.8431C9.76035 42.8984 9.60562 42.9237 9.45052 42.9177C9.29541 42.9116 9.14313 42.8742 9.00283 42.8078C8.86253 42.7414 8.7371 42.6474 8.63407 42.5313C8.53104 42.4151 8.45255 42.2794 8.40331 42.1322C7.27055 39.0415 6.69025 35.7756 6.68893 32.4838C6.68893 29.5588 7.22924 26.8978 8.28549 24.5863C11.4085 17.7816 18.3341 13.3738 25.9167 13.3738C36.5991 13.3738 45.2857 21.9294 45.2857 32.4594C45.2857 36.4081 42.0459 39.6256 38.0545 39.6256C34.0631 39.6256 30.8232 36.4081 30.8232 32.4594C30.8242 29.8513 28.6407 27.7266 25.9411 27.7266C23.2416 27.7266 21.058 29.8472 21.058 32.4553C21.058 36.6194 22.6078 40.5235 25.4485 43.4485C27.6829 45.7397 29.8157 47.0031 33.1257 47.9578C33.7594 48.1285 34.1118 48.811 33.9473 49.4447C33.896 49.702 33.7588 49.9342 33.5582 50.1032C33.3576 50.2723 33.1055 50.3681 32.8433 50.375Z" fill="url(#paint0_linear)"/>
<defs>
<linearGradient id="paint0_linear" x1="-11.6315" y1="-0.684219" x2="42.4211" y2="32.8421" gradientUnits="userSpaceOnUse">
<stop stop-color="#1C5BA6"/>
<stop offset="0.744479" stop-color="#4959B6" stop-opacity="0.95"/>
<stop offset="1" stop-color="#6558C0" stop-opacity="0.81"/>
</linearGradient>
</defs>
</svg>
