<svg width="45" height="45" viewBox="0 0 45 45" fill="none" xmlns="http://www.w3.org/2000/svg">
<path d="M7.96875 7.5C5.65547 7.5 3.75 9.40547 3.75 11.7187V33.2812C3.75 35.5945 5.65547 37.5 7.96875 37.5H37.0313C39.3445 37.5 41.25 35.5945 41.25 33.2812V16.4062C41.25 14.093 39.3445 12.1875 37.0313 12.1875H22.5403L18.349 8.69568C17.4226 7.92385 16.2555 7.5 15.0494 7.5H7.96875ZM7.96875 10.3125H15.0494C15.5984 10.3125 16.1274 10.505 16.5491 10.8563L19.834 13.5937L16.5491 16.3312C16.1274 16.6825 15.5984 16.875 15.0494 16.875H6.5625V11.7187C6.5625 10.9252 7.17516 10.3125 7.96875 10.3125ZM22.5403 15H37.0313C37.8248 15 38.4375 15.6127 38.4375 16.4062V33.2812C38.4375 34.0748 37.8248 34.6875 37.0313 34.6875H7.96875C7.17516 34.6875 6.5625 34.0748 6.5625 33.2812V19.6875H15.0494C16.2555 19.6875 17.4226 19.2636 18.349 18.4918L22.5403 15Z" fill="url(#paint0_linear)"/>
<defs>
<linearGradient id="paint0_linear" x1="-2.06897" y1="9.2398" x2="41.2773" y2="59.0185" gradientUnits="userSpaceOnUse">
<stop offset="0.0001" stop-color="#6D5FCF"/>
<stop offset="1" stop-color="#1D5CA6" stop-opacity="0.58"/>
</linearGradient>
</defs>
</svg>
