<svg id="Capa_1" enable-background="new 0 0 512 512" height="512" viewBox="0 0 512 512" width="512" xmlns="http://www.w3.org/2000/svg"><g><path d="m249.414.151c-65.944 2.246-126.096 30.319-170.275 74.434 0 0-58.605 76.978-67.075 162.335-5.39 54.317 13.208 104.437 39.095 147.258l-42.353 104.254 14.335 14.335 106.859-40.399c42.82 25.887 91.104 42.383 145.569 38.769 62.898-4.173 161.836-68.266 161.836-68.266 44.121-44.18 72.199-104.336 74.445-170.286 5.009-147.133-115.302-267.444-262.436-262.434z" fill="#eceaec"/><path d="m67.695 433.384c-2.611 6.83 4.091 13.531 10.921 10.92l33.479-12.802c4.889-1.867 10.002-2.788 15.106-2.788 7.615 0 15.189 2.057 21.879 6.095 37.142 22.449 79.909 32.802 123.691 29.87 106.718-7.082 193.168-96.485 196.819-203.533 2.015-59.326-19.93-115.06-61.812-156.935-41.876-41.874-97.42-63.831-156.928-61.795-107.049 3.646-196.447 90.096-203.525 196.814-2.889 43.51 7.287 86.017 29.442 122.991 6.849 11.431 8.486 25.233 3.727 37.681z" fill="#77cc7d"/><path d="m95.847 407.109c-2.162 5.653 3.384 11.2 9.037 9.038l1.165-.445c6.789-2.589 13.9-3.902 21.152-3.902 10.787 0 21.375 2.949 30.617 8.528 34.202 20.673 73.615 30.204 113.821 27.475 98.17-6.512 177.69-88.754 181.043-187.234 1.858-54.594-18.336-105.876-56.865-144.393-38.53-38.538-89.844-58.843-144.389-56.853-98.475 3.353-180.713 82.869-187.221 181.027-2.668 40.049 6.698 79.182 27.074 113.173 9.713 16.234 11.546 35.337 5.013 52.418z" fill="#98db7c"/><path d="m437.371 432.821c-6.632-6.632-17.23-6.888-24.296-.72-37.839 33.031-86.02 54.406-138.629 57.897-48.986 3.266-96.898-8.325-138.5-33.471l-.002-.001c-4.46-2.699-9.916-3.189-14.785-1.327l-68.844 26.324c-13.661 5.223-27.064-8.179-21.841-21.84l26.326-68.854c1.859-4.863 1.373-10.312-1.317-14.769l-.006-.011c-25.15-41.606-36.729-89.498-33.467-138.5 3.489-52.612 24.868-100.796 57.904-138.638 6.169-7.065 5.898-17.648-.734-24.281l-.041-.045c-42.209 42.149-69.841 98.943-74.015 161.846-3.613 54.465 9.988 105.546 35.875 148.367l-39.844 104.206c-5.223 13.661 8.18 27.064 21.841 21.841l104.206-39.844c42.82 25.887 93.902 39.488 148.367 35.874 62.902-4.173 119.686-31.794 161.836-74.003z" fill="#dbd8db"/><path d="m305.857 313.789-2.996 2.996c-7.248 7.248-18.248 9.661-27.622 5.513-18.398-8.143-35.644-19.707-50.737-34.8s-26.658-32.339-34.8-50.737c-4.149-9.374-1.736-20.373 5.513-27.622l2.996-2.996c6.999-6.999 9.268-17.426 5.797-26.695-4.755-12.697-8.288-25.745-10.609-38.966-2.335-13.302-18.988-18.186-28.538-8.636l-19.02 19.02-8.091 27.947c3.534 48.875 23.946 96.751 61.316 134.121s85.247 57.782 134.121 61.316l27.942-8.087 19.024-19.024c9.55-9.55 4.667-26.202-8.636-28.538-13.221-2.321-26.269-5.854-38.966-10.609-9.268-3.471-19.695-1.201-26.694 5.797z" fill="#fff"/><path d="m328.721 378.716c11.985.867 23.711-3.856 32.209-12.353l.2-.2-2.398.041c-57.608.95-111.244-20.735-151.723-61.214-40.479-40.483-62.217-94.362-61.21-151.719l.041-2.406-.204.204c-8.497 8.497-13.219 20.223-12.353 32.209 3.534 48.875 23.946 96.751 61.316 134.121 37.371 37.371 85.248 57.783 134.122 61.317z" fill="#eceaec"/></g></svg>