<?xml version="1.0"?>
<svg xmlns="http://www.w3.org/2000/svg" xmlns:xlink="http://www.w3.org/1999/xlink" xmlns:svgjs="http://svgjs.com/svgjs" version="1.1" width="512" height="512" x="0" y="0" viewBox="0 0 512 512" style="enable-background:new 0 0 512 512" xml:space="preserve" class=""><g><g xmlns="http://www.w3.org/2000/svg"><path d="m512 256c0-141.385-114.615-256-256-256-66.452 0-126.99 25.319-172.494 66.836-51.311 46.817-77.307 114.231-77.307 189.164 0 141.385 108.416 251.977 249.801 251.977 74.893 0 142.275-28.137 189.088-79.401 41.562-45.513 66.912-106.084 66.912-172.576z" fill="#4bc3ef" data-original="#4bc3ef" style="" class=""/><path d="m272.516 495.484c-141.385 0-256-114.615-256-256 0-66.491 25.429-127.135 66.99-172.647-51.265 46.813-83.506 114.269-83.506 189.163 0 127.328 92.957 232.945 214.71 252.688h82.582c58.172-9.433 109.77-38.469 147.797-80.112-45.513 41.561-106.082 66.908-172.573 66.908z" fill="#1badde" data-original="#1badde" style=""/><path d="m322.065 165.161h33.032c4.56 0 8.258-3.698 8.258-8.258v-49.548c0-4.561-3.698-8.258-8.258-8.258h-49.548c-50.169 0-90.839 40.67-90.839 90.839v66.064h-49.548l-12.682 50.312 68.416 8.796 1.412 183.095 64.507 5.43 10.476-9.336v-172.233h43.101c3.789 0 7.092-2.579 8.012-6.255l12.388-49.549c1.302-5.212-2.639-10.26-8.012-10.26h-55.49v-66.064c0-13.683 11.092-24.775 24.775-24.775z" fill="#ffffff" data-original="#ffffff" style="" class=""/><path d="m272.516 495.484c-8.961 0-17.801-.498-26.512-1.43-8.406-.899-14.778-8.021-14.778-16.476v-155.513c0-9.122-7.395-16.516-16.516-16.516h-41.29c-4.561 0-8.258-3.697-8.258-8.258v-41.291h-8.258c-4.561 0-8.258 3.697-8.258 8.258v49.548c0 4.561 3.697 8.258 8.258 8.258h57.806v186.623c13.446 2.182 27.228 3.313 41.29 3.313s27.844-1.136 41.29-3.318v-14.385c-8.152.783-16.416 1.187-24.774 1.187z" fill="#e3f5ff" data-original="#e3f5ff" style=""/></g></g></svg>
