<svg id="Capa_1" enable-background="new 0 0 512 512" height="512" viewBox="0 0 512 512" width="512" xmlns="http://www.w3.org/2000/svg"><g><path d="m429.419 0h-346.838c-27.013 0-50.998 12.969-66.065 33.022l-10.797 49.559v338.255c0 45.608 36.973 82.581 82.581 82.581h341.12l49.545-7.932c20.057-15.067 33.035-39.048 33.035-66.066v-346.838c0-45.608-36.973-82.581-82.581-82.581z" fill="#ff98a2"/><path d="m396.387 256c0 35.59-13.244 68.088-35.072 92.832-25.725 29.161-63.372 43.598-105.315 43.598-77.534 0-137.076-58.896-137.076-136.43 0-42.017 15.147-79.722 44.397-105.45 24.725-21.748 57.162-34.937 92.678-34.937 77.535 0 140.388 62.853 140.388 140.387z" fill="#fb4455"/><circle cx="256" cy="256" fill="#ffdbde" r="99.097"/><circle cx="412.903" cy="99.097" fill="#fff" r="33.032"/><path d="m82.581 495.484c-36.486 0-66.065-29.578-66.065-66.065v-396.397c-10.325 13.786-16.516 31.009-16.516 49.559v346.839c0 45.607 36.973 82.58 82.581 82.58h346.839c18.55 0 35.759-6.191 49.545-16.516z" fill="#ff7e92"/><circle cx="256" cy="256" fill="#fff" r="82.581"/><path d="m268.387 384c-77.534 0-140.387-62.853-140.387-140.387 0-35.612 13.469-68.313 35.322-93.063-29.135 25.724-47.709 63.529-47.709 105.45 0 77.534 62.853 140.387 140.387 140.387 41.921 0 79.591-18.421 105.315-47.555-24.75 21.852-57.316 35.168-92.928 35.168z" fill="#d93f50"/><path d="m426.953 118.079c-18.243 0-33.032-14.789-33.032-33.032 0-5.49 1.468-10.589 3.838-15.145-10.582 5.505-17.888 16.442-17.888 29.195 0 18.243 14.789 33.032 33.032 33.032 12.753 0 23.69-7.305 29.195-17.887-4.556 2.37-9.654 3.837-15.145 3.837z" fill="#ffdbde"/></g></svg>