<svg width="41" height="10" viewBox="0 0 41 10" fill="none" xmlns="http://www.w3.org/2000/svg">
<path d="M20.5 0C17.8918 0 15.7692 2.12254 15.7692 4.73077C15.7692 7.339 17.8918 9.46154 20.5 9.46154C23.1082 9.46154 25.2308 7.339 25.2308 4.73077C25.2308 2.12254 23.1082 0 20.5 0Z" fill="#808191"/>
<path d="M4.73077 0C2.12254 0 0 2.12254 0 4.73077C0 7.339 2.12254 9.46154 4.73077 9.46154C7.339 9.46154 9.46154 7.339 9.46154 4.73077C9.46154 2.12254 7.339 0 4.73077 0Z" fill="#808191"/>
<path d="M36.2692 0C33.661 0 31.5385 2.12254 31.5385 4.73077C31.5385 7.339 33.661 9.46154 36.2692 9.46154C38.8775 9.46154 41 7.339 41 4.73077C41 2.12254 38.8775 0 36.2692 0Z" fill="#808191"/>
</svg>
