<svg width="500" height="500" viewBox="0 0 500 500" fill="none" xmlns="http://www.w3.org/2000/svg">
<path d="M420.84 215.58C403.63 189.03 372.39 172.18 340.76 172.38C322.15 172.5 302.76 177.98 285.41 171.31C262.81 162.62 252.41 137.13 244.41 114.31C236.41 91.49 229.9 67.91 203.3 57.38C189.2 51.8 159.99 54.45 146.15 60.65C109.5 77.04 99.15 116.65 95.43 156.65C91.71 196.65 105.43 236.74 126.86 270.65C156.86 318.2 203.86 356.35 258.65 369.07C313.44 381.79 375.53 366.48 413.4 324.9L427.58 306.36C440.69 277.52 438.05 242.12 420.84 215.58Z" fill="#F5F5F5"/>
<path d="M153.74 352.63C150.74 346.1 147.53 339.57 142.69 334.29L142.54 334.13C138.555 329.817 133.472 326.669 127.835 325.022C122.199 323.375 116.22 323.291 110.54 324.78L109.41 325.07C92.81 329.38 81.85 345.69 85 362.58C85.1 363.11 85.21 363.63 85.32 364.16C88.18 376.72 96.85 387.53 107.7 394.48C116.03 399.81 126 403.09 135.82 401.9C145.64 400.71 155.11 394.51 158.62 385.26C162.57 374.69 158.41 362.92 153.74 352.63Z" fill="#F5F5F5"/>
<path d="M476.29 464.46C476.29 464.61 374.52 464.72 249.01 464.72C123.5 464.72 21.71 464.61 21.71 464.46C21.71 464.31 123.46 464.2 249.01 464.2C374.56 464.2 476.29 464.32 476.29 464.46Z" fill="#263238"/>
<path d="M289.86 448.55H297.97V351.38H289.86V448.55Z" fill="#263238"/>
<path d="M236.53 355.77H352.53C352.53 352.431 351.204 349.229 348.842 346.867C346.481 344.506 343.279 343.18 339.94 343.18H249.12C245.781 343.18 242.579 344.506 240.218 346.867C237.856 349.229 236.53 352.431 236.53 355.77Z" fill="#263238"/>
<path d="M286 356C286 356.17 289.18 356.3 293.11 356.3C297.04 356.3 300.23 356.17 300.23 356C297.869 355.704 295.488 355.604 293.11 355.7C290.736 355.604 288.358 355.704 286 356Z" fill="#263238"/>
<path d="M258.44 457.35H259.59C259.479 452.749 260.29 448.173 261.974 443.891C263.658 439.608 266.181 435.705 269.396 432.412C272.61 429.119 276.451 426.503 280.692 424.716C284.933 422.93 289.488 422.009 294.09 422.009C298.692 422.009 303.247 422.93 307.488 424.716C311.729 426.503 315.57 429.119 318.784 432.412C321.999 435.705 324.522 439.608 326.206 443.891C327.89 448.173 328.701 452.749 328.59 457.35H329.74C329.819 452.617 328.956 447.916 327.199 443.521C325.443 439.126 322.829 435.124 319.511 431.749C316.192 428.375 312.235 425.694 307.869 423.865C303.504 422.035 298.818 421.093 294.085 421.093C289.352 421.093 284.666 422.035 280.301 423.865C275.935 425.694 271.978 428.375 268.659 431.749C265.341 435.124 262.727 439.126 260.971 443.521C259.214 447.916 258.351 452.617 258.43 457.35H258.44Z" fill="#455A64"/>
<path d="M323.83 459.12C323.83 460.178 324.144 461.212 324.732 462.092C325.32 462.972 326.155 463.658 327.133 464.063C328.11 464.468 329.186 464.574 330.224 464.367C331.262 464.161 332.215 463.651 332.963 462.903C333.711 462.155 334.221 461.201 334.427 460.164C334.634 459.126 334.528 458.05 334.123 457.073C333.718 456.095 333.032 455.259 332.152 454.672C331.273 454.084 330.238 453.77 329.18 453.77C328.477 453.769 327.781 453.906 327.131 454.174C326.481 454.443 325.891 454.837 325.394 455.334C324.897 455.831 324.503 456.421 324.235 457.071C323.966 457.721 323.829 458.417 323.83 459.12Z" fill="#263238"/>
<path d="M253.4 458.38C253.4 459.438 253.714 460.472 254.302 461.352C254.89 462.232 255.725 462.918 256.703 463.323C257.68 463.728 258.756 463.834 259.794 463.627C260.832 463.421 261.785 462.911 262.533 462.163C263.281 461.415 263.791 460.461 263.997 459.424C264.204 458.386 264.098 457.31 263.693 456.333C263.288 455.355 262.602 454.519 261.722 453.932C260.843 453.344 259.808 453.03 258.75 453.03C257.331 453.03 255.97 453.594 254.967 454.597C253.964 455.6 253.4 456.961 253.4 458.38Z" fill="#455A64"/>
<path d="M258.78 448.54C258.78 448.71 274.3 448.84 293.43 448.84C312.56 448.84 328.09 448.71 328.09 448.54C328.09 448.37 312.58 448.24 293.43 448.24C274.28 448.24 258.78 448.38 258.78 448.54Z" fill="#455A64"/>
<path d="M355.93 255.18V326.71C355.93 331.219 354.139 335.543 350.951 338.731C347.763 341.919 343.439 343.71 338.93 343.71H283.83L291.31 255.2C291.31 253.192 292.108 251.267 293.527 249.847C294.947 248.427 296.872 247.63 298.88 247.63H348.36C350.364 247.63 352.287 248.425 353.706 249.84C355.125 251.255 355.925 253.176 355.93 255.18Z" fill="#263238"/>
<path d="M336.45 343.18C336.45 343.18 336.45 343.1 336.58 342.97L336.98 342.39C337.35 341.88 337.87 341.12 338.5 340.11C340.265 337.269 341.643 334.205 342.6 331C343.268 328.795 343.727 326.531 343.97 324.24C344.194 321.6 344.265 318.948 344.18 316.3C344.18 310.67 344.18 304.5 344.18 298.01C344.18 285.06 344.24 273.34 344.27 264.79C344.27 260.58 344.34 257.16 344.36 254.72C344.36 253.58 344.36 252.66 344.41 251.99C344.402 251.656 344.422 251.321 344.47 250.99C344.518 251.321 344.538 251.656 344.53 251.99C344.53 252.66 344.53 253.58 344.58 254.72C344.58 257.16 344.64 260.58 344.67 264.79C344.67 273.34 344.73 285.06 344.76 298.01C344.76 304.5 344.76 310.67 344.76 316.3C344.822 318.97 344.729 321.641 344.48 324.3C343.827 329.992 341.855 335.454 338.72 340.25C338.06 341.25 337.51 341.98 337.11 342.47C336.914 342.727 336.692 342.965 336.45 343.18Z" fill="#455A64"/>
<path d="M306.44 343.22C307.02 343.138 307.605 343.105 308.19 343.12L312.96 343.06C316.96 343.06 322.57 343.06 328.72 343.06C331.8 343.06 334.72 343.06 337.4 343.16C339.78 343.12 342.155 343.378 344.47 343.93C346.037 344.35 347.492 345.112 348.73 346.16C349.067 346.438 349.376 346.75 349.65 347.09C349.762 347.194 349.856 347.316 349.93 347.45C349.88 347.45 349.48 347.01 348.59 346.34C347.336 345.39 345.899 344.709 344.37 344.34C342.071 343.848 339.721 343.633 337.37 343.7L328.69 343.65C322.54 343.6 316.97 343.53 312.94 343.45L308.17 343.32C307.592 343.336 307.013 343.302 306.44 343.22Z" fill="#455A64"/>
<path d="M331 251.55C331 251.73 325.57 251.89 318.88 251.91C312.19 251.93 306.75 251.81 306.75 251.63C306.75 251.45 312.18 251.29 318.87 251.27C325.56 251.25 331 251.37 331 251.55Z" fill="#263238"/>
<path d="M330.62 252.72L326.17 230.4C322.89 212.14 297.29 210.88 297.29 210.88L277.19 210.55C277.19 210.55 262.29 208.55 253.1 218.92C243.58 229.64 231.9 242.32 231.9 242.32L240.82 264.78L262 247.33C262 247.33 258.36 253.33 261.52 256.28C265.82 260.28 267.73 258.89 267.73 258.89C242.5 271.66 244 309.12 259 313.59L328.36 312.73C327.97 298.17 328.16 285.46 314.07 275.36L318.07 252.72H330.62Z" fill="#6C5ECF"/>
<path d="M259.62 253.35C259.792 252.328 260.057 251.324 260.41 250.35C260.69 249.43 261.02 248.35 261.41 247.13C261.63 246.53 261.86 245.9 262.13 245.25C262.27 244.9 262.46 244.61 262.55 244.32C262.645 243.995 262.685 243.658 262.67 243.32C262.616 242.626 262.509 241.937 262.35 241.26C262.23 240.59 262.11 239.94 261.99 239.26C261.78 238.07 261.59 236.96 261.41 235.94C261.177 234.923 261.053 233.883 261.04 232.84C261.417 233.809 261.692 234.814 261.86 235.84C262.08 236.84 262.32 237.96 262.58 239.14C262.71 239.77 262.84 240.42 262.98 241.14C263.147 241.853 263.257 242.579 263.31 243.31C263.329 243.709 263.279 244.108 263.16 244.49C263.03 244.88 262.83 245.18 262.71 245.49C262.44 246.12 262.2 246.74 261.97 247.33C261.56 248.46 261.17 249.52 260.81 250.49C260.522 251.485 260.123 252.444 259.62 253.35Z" fill="#263238"/>
<g opacity="0.3">
<path opacity="0.3" d="M303.22 233.75C304.03 246.2 304.52 257.66 304.76 270.13C306.423 270.063 308.038 269.556 309.44 268.66C310.08 263.35 306.05 247.16 303.22 233.75Z" fill="black"/>
</g>
<g opacity="0.3">
<path opacity="0.3" d="M265.28 293.35L323.77 298.05L321.28 291.51L265.85 290.7L265.28 293.35Z" fill="black"/>
</g>
<path d="M311.47 237.21C311.789 234.468 312.461 231.779 313.47 229.21C313.148 231.951 312.476 234.64 311.47 237.21Z" fill="#FAFAFA"/>
<path d="M324.12 243.94C323.333 243.102 322.676 242.152 322.17 241.12C321.513 240.173 321.004 239.131 320.66 238.03C321.465 238.864 322.139 239.814 322.66 240.85C323.3 241.8 323.792 242.842 324.12 243.94Z" fill="#FAFAFA"/>
<path d="M315.19 250.47C315.325 248.564 315.81 246.7 316.62 244.97C316.636 245.93 316.48 246.885 316.16 247.79C316.001 248.734 315.672 249.642 315.19 250.47Z" fill="#FAFAFA"/>
<path d="M296.41 277.77C295.416 277.333 294.5 276.735 293.7 276C292.795 275.414 291.988 274.688 291.31 273.85C292.299 274.279 293.214 274.863 294.02 275.58C294.923 276.185 295.729 276.923 296.41 277.77Z" fill="#FAFAFA"/>
<path d="M281.48 272.06C282.04 270.832 282.752 269.68 283.6 268.63C284.305 267.485 285.156 266.436 286.13 265.51C285.579 266.737 284.87 267.887 284.02 268.93C283.312 270.079 282.458 271.131 281.48 272.06Z" fill="#FAFAFA"/>
<path d="M266.62 272.48C266.48 272.48 266.48 271.48 267.11 270.6C267.74 269.72 268.61 269.31 268.67 269.43C268.73 269.55 268.09 270.07 267.54 270.89C266.99 271.71 266.77 272.51 266.62 272.48Z" fill="#FAFAFA"/>
<path d="M286 258.89C284.974 258.616 284.001 258.173 283.12 257.58C282.161 257.134 281.279 256.536 280.51 255.81C281.532 256.086 282.502 256.528 283.38 257.12C284.343 257.564 285.228 258.162 286 258.89Z" fill="#FAFAFA"/>
<path d="M267.64 255.77C267.577 254.231 267.857 252.697 268.46 251.28C268.577 252.045 268.526 252.827 268.31 253.57C268.255 254.344 268.026 255.096 267.64 255.77Z" fill="#FAFAFA"/>
<path d="M273.35 244.76C273.23 244.84 272.48 244.01 271.48 243.06C270.48 242.11 269.6 241.41 269.68 241.29C269.76 241.17 270.8 241.7 271.84 242.69C272.88 243.68 273.47 244.68 273.35 244.76Z" fill="#FAFAFA"/>
<path d="M294.56 257.6C294.42 257.68 293.89 256.9 293 256.19C292.11 255.48 291.25 255.09 291.3 254.95C291.35 254.81 292.36 254.95 293.3 255.78C294.24 256.61 294.68 257.55 294.56 257.6Z" fill="#FAFAFA"/>
<path d="M301.08 240.68C301.21 240.75 300.9 241.54 300.39 242.44C299.88 243.34 299.39 244.01 299.25 243.94C299.11 243.87 299.43 243.08 299.94 242.18C300.45 241.28 301 240.61 301.08 240.68Z" fill="#FAFAFA"/>
<path d="M294.32 239.22C294.43 239.31 293.92 240.07 293.18 240.91C292.44 241.75 291.76 242.36 291.65 242.26C291.54 242.16 292.05 241.41 292.79 240.57C293.53 239.73 294.21 239.12 294.32 239.22Z" fill="#FAFAFA"/>
<path d="M310.23 225.21C310.13 225.32 309.32 224.72 308.42 223.87C307.52 223.02 306.87 222.26 306.97 222.15C307.07 222.04 307.88 222.65 308.78 223.49C309.68 224.33 310.33 225.11 310.23 225.21Z" fill="#FAFAFA"/>
<path d="M318 222.11C317.203 221.692 316.488 221.133 315.89 220.46C314.81 219.46 314.03 218.55 314.12 218.46C314.924 218.867 315.644 219.424 316.24 220.1C317.33 221.1 318.12 222 318 222.11Z" fill="#FAFAFA"/>
<path d="M268.48 232.77C268.58 232.87 268.17 233.48 267.55 234.15C266.93 234.82 266.34 235.27 266.24 235.15C266.14 235.03 266.55 234.43 267.17 233.77C267.79 233.11 268.37 232.67 268.48 232.77Z" fill="#FAFAFA"/>
<path d="M257.6 222.53C258.564 222.756 259.504 223.07 260.41 223.47C261.369 223.715 262.303 224.05 263.2 224.47C261.171 224.474 259.199 223.798 257.6 222.55V222.53Z" fill="#FAFAFA"/>
<path d="M260.8 218.53C260.68 218.45 261.11 217.65 261.94 216.91C262.77 216.17 263.62 215.85 263.68 215.97C263.74 216.09 263.06 216.61 262.29 217.3C261.52 217.99 260.92 218.62 260.8 218.53Z" fill="#FAFAFA"/>
<path d="M250.56 238.69C250.44 238.76 249.94 238.14 249.46 237.3C248.98 236.46 248.68 235.72 248.8 235.65C248.92 235.58 249.42 236.2 249.91 237.04C250.4 237.88 250.69 238.62 250.56 238.69Z" fill="#FAFAFA"/>
<path d="M248.65 251.81C249.035 250.631 249.581 249.511 250.27 248.48C250.811 247.367 251.508 246.336 252.34 245.42C251.956 246.596 251.41 247.713 250.72 248.74C250.178 249.856 249.481 250.889 248.65 251.81Z" fill="#FAFAFA"/>
<path d="M239.06 243.09C239.945 243.152 240.808 243.393 241.597 243.799C242.386 244.205 243.085 244.766 243.65 245.45C242.851 245.125 242.085 244.727 241.36 244.26C240.558 243.944 239.788 243.552 239.06 243.09Z" fill="#FAFAFA"/>
<path d="M242.7 253.58C242.81 253.5 243.19 253.83 243.54 254.32C243.89 254.81 244.08 255.32 243.97 255.32C243.86 255.32 243.47 255.08 243.12 254.59C242.77 254.1 242.58 253.67 242.7 253.58Z" fill="#FAFAFA"/>
<path d="M309.44 268.66C309.276 268.631 309.118 268.577 308.97 268.5L307.69 267.93C306.56 267.45 304.99 266.63 303.06 265.6C298.078 262.821 293.422 259.494 289.18 255.68C286.863 253.559 284.688 251.287 282.67 248.88C281.039 246.897 279.556 244.798 278.23 242.6C277.7 241.65 277.23 240.78 276.84 240C276.45 239.22 276.15 238.53 275.94 238C275.73 237.47 275.6 237 275.48 236.66C275.419 236.509 275.375 236.351 275.35 236.19C275.35 236.19 275.45 236.34 275.58 236.63L276.13 237.92C276.37 238.48 276.72 239.13 277.13 239.92C277.54 240.71 278.03 241.53 278.58 242.46C279.938 244.611 281.438 246.669 283.07 248.62C285.094 250.991 287.261 253.235 289.56 255.34C293.781 259.127 298.375 262.477 303.27 265.34C305.17 266.41 306.71 267.27 307.81 267.8L309.05 268.46C309.184 268.517 309.315 268.584 309.44 268.66Z" fill="#263238"/>
<path d="M272 308C270.285 306.067 268.844 303.907 267.72 301.58C268.643 302.491 269.437 303.524 270.08 304.65C270.867 305.676 271.513 306.802 272 308Z" fill="#FAFAFA"/>
<path d="M262 299.72C259.929 301.265 257.663 302.53 255.26 303.48C256.24 302.634 257.33 301.924 258.5 301.37C259.586 300.662 260.763 300.107 262 299.72Z" fill="#FAFAFA"/>
<path d="M284.12 303C284.93 302.24 285.851 301.606 286.85 301.12C287.767 300.489 288.78 300.009 289.85 299.7C289.048 300.463 288.13 301.094 287.13 301.57C286.21 302.206 285.194 302.689 284.12 303Z" fill="#FAFAFA"/>
<path d="M302.19 309.12C301.248 308.863 300.358 308.443 299.56 307.88C298.684 307.457 297.886 306.889 297.2 306.2C298.144 306.446 299.036 306.863 299.83 307.43C300.71 307.85 301.509 308.422 302.19 309.12Z" fill="#FAFAFA"/>
<path d="M312.51 306.17C311.388 306.037 310.278 305.816 309.19 305.51C308.071 305.377 306.964 305.156 305.88 304.85C308.173 304.599 310.488 305.059 312.51 306.17Z" fill="#FAFAFA"/>
<path d="M317.85 303C317.75 302.9 318.35 302.11 319.35 301.43C320.35 300.75 321.3 300.43 321.35 300.6C321.4 300.77 320.59 301.21 319.65 301.86C318.71 302.51 318 303.13 317.85 303Z" fill="#FAFAFA"/>
<path d="M310.37 268.28C310.198 267.843 310.067 267.391 309.98 266.93C309.74 265.93 309.45 264.7 309.09 263.2C308.37 260.06 307.41 255.7 306.38 250.88C305.35 246.06 304.44 241.69 303.81 238.53L303.09 234.77C302.983 234.313 302.916 233.848 302.89 233.38C303.073 233.814 303.207 234.266 303.29 234.73C303.52 235.73 303.81 236.95 304.17 238.45C304.89 241.6 305.85 245.95 306.89 250.77C307.93 255.59 308.82 259.96 309.45 263.13C309.74 264.64 309.99 265.9 310.17 266.88C310.277 267.34 310.344 267.808 310.37 268.28Z" fill="#263238"/>
<path d="M275.35 257.43C275.35 257.52 274.29 257.57 272.62 257.88C270.439 258.292 268.321 258.988 266.32 259.95C264.329 260.927 262.476 262.165 260.81 263.63C259.53 264.76 258.81 265.56 258.81 265.51C258.81 265.46 258.93 265.26 259.22 264.88C259.646 264.343 260.107 263.836 260.6 263.36C262.228 261.785 264.095 260.475 266.13 259.48C268.166 258.471 270.35 257.796 272.6 257.48C273.263 257.385 273.931 257.335 274.6 257.33C275.08 257.37 275.35 257.39 275.35 257.43Z" fill="#263238"/>
<path d="M330.08 248.92L332.75 265.08C333.155 267.544 333.019 270.068 332.35 272.474C331.682 274.881 330.498 277.113 328.881 279.016C327.263 280.919 325.251 282.447 322.983 283.494C320.716 284.541 318.248 285.082 315.75 285.08H261.48L260.21 277.15L306.73 269.5C307.2 269.422 307.649 269.25 308.05 268.995C308.452 268.74 308.798 268.406 309.068 268.014C309.338 267.622 309.526 267.18 309.62 266.713C309.715 266.247 309.715 265.766 309.62 265.3L307.06 252.76L330.08 248.92Z" fill="#6C5ECF"/>
<path d="M309.76 269.55C309.573 269.618 309.378 269.662 309.18 269.68L307.49 269.95L301.26 270.87C296.01 271.65 288.75 272.73 280.74 274.01C272.23 275.37 264.59 276.68 259.37 277.58L259.51 277.36C260.05 279.65 260.51 281.51 260.82 282.86C260.96 283.47 261.07 283.96 261.15 284.35C261.202 284.519 261.229 284.694 261.23 284.87C261.16 284.708 261.104 284.541 261.06 284.37L260.64 282.91L259.17 277.45L259.12 277.27H259.31C264.51 276.27 272.14 274.89 280.66 273.54C288.66 272.26 295.94 271.23 301.21 270.54C303.85 270.2 305.99 269.94 307.46 269.78L309.17 269.6C309.364 269.559 309.562 269.542 309.76 269.55Z" fill="#263238"/>
<path d="M259.34 277.41H241.36L239.06 281.93L260.96 283.78L259.34 277.41Z" fill="#FFBE9D"/>
<path d="M323.23 256.15C322.459 255.367 321.823 254.462 321.35 253.47C320.721 252.573 320.242 251.58 319.93 250.53C321.317 252.219 322.431 254.116 323.23 256.15Z" fill="#FAFAFA"/>
<path d="M323.24 263.3C322.563 264.425 321.747 265.46 320.81 266.38C320 267.412 319.055 268.33 318 269.11C318.671 267.983 319.484 266.948 320.42 266.03C321.232 264.996 322.18 264.078 323.24 263.3Z" fill="#FAFAFA"/>
<path d="M313.56 265.84C313.213 264.043 313.213 262.197 313.56 260.4C313.907 262.197 313.907 264.043 313.56 265.84Z" fill="#FAFAFA"/>
<path d="M325.78 276.85C325.019 277.172 324.196 277.325 323.37 277.3C322.56 277.444 321.73 277.42 320.93 277.23C321.691 276.917 322.508 276.764 323.33 276.78C324.143 276.638 324.976 276.662 325.78 276.85Z" fill="#FAFAFA"/>
<path d="M307 280.59C305.508 279.264 304.259 277.687 303.31 275.93C304.11 276.533 304.803 277.267 305.36 278.1C306.047 278.829 306.602 279.671 307 280.59Z" fill="#FAFAFA"/>
<path d="M289.53 278.65C289.4 278.59 289.69 277.75 290.16 276.79C290.63 275.83 291.16 275.09 291.26 275.15C291.36 275.21 291.11 276.05 290.63 277.02C290.15 277.99 289.66 278.72 289.53 278.65Z" fill="#FAFAFA"/>
<path d="M274 437.8L267.39 428.8L284.19 416.32L294 429.39L293 430.23C288.55 433.93 270.13 448.74 266.34 450.1C262.15 451.62 274 437.8 274 437.8Z" fill="#6C5ECF"/>
<g opacity="0.5">
<path opacity="0.5" d="M287.85 433.78C287.043 432.18 286.858 430.338 287.33 428.61C287.78 426.905 288.85 425.429 290.33 424.47L293.82 429.16L287.85 433.78Z" fill="white"/>
</g>
<g opacity="0.4">
<path opacity="0.4" d="M268.41 444.8C268.41 444.8 264.48 449.96 265.72 450.32C266.96 450.68 286.13 436.42 294.04 429.39L293.73 429.03L271.51 445.86C271.51 445.86 269.42 444.12 268.41 444.8Z" fill="white"/>
</g>
<path d="M294 428.83L293.73 429.07L292.94 429.74L289.99 432.14C287.48 434.14 283.99 436.88 279.99 439.82C275.99 442.76 272.43 445.32 269.79 447.15L266.64 449.3L265.78 449.86L265.47 450.05C265.47 450.05 265.56 449.96 265.75 449.82L266.59 449.21L269.69 447.01C272.3 445.14 275.9 442.54 279.84 439.61C283.78 436.68 287.29 433.98 289.84 432L292.84 429.66L293.66 429.03C293.763 428.947 293.877 428.879 294 428.83Z" fill="#263238"/>
<path d="M271.71 446.12C271.197 445.724 270.64 445.389 270.05 445.12C269.43 444.917 268.789 444.783 268.14 444.72C268.81 444.569 269.51 444.624 270.147 444.88C270.785 445.135 271.33 445.578 271.71 446.15V446.12Z" fill="#263238"/>
<path d="M274.79 439.92C274.442 439.911 274.101 439.826 273.79 439.67C273.26 439.47 272.85 439.25 272.87 439.18C273.218 439.188 273.559 439.273 273.87 439.43C274.41 439.64 274.82 439.85 274.79 439.92Z" fill="#263238"/>
<path d="M275.62 438.19C275.62 438.26 275.21 438.28 274.73 438.19C274.25 438.1 273.86 438.06 273.87 437.99C273.88 437.92 274.27 437.9 274.75 437.99C275.23 438.08 275.62 438.12 275.62 438.19Z" fill="#263238"/>
<path d="M275.3 436C275.3 436.06 274.98 436.4 274.5 436.77C274.229 437.02 273.909 437.21 273.56 437.33C273.51 437.27 273.87 436.93 274.35 436.57C274.83 436.21 275.25 435.91 275.3 436Z" fill="#263238"/>
<path d="M274.76 434.63C274.82 434.63 274.53 435.17 273.99 435.63C273.45 436.09 272.91 436.31 272.88 436.24C273.174 435.948 273.492 435.68 273.83 435.44C274.34 435 274.7 434.58 274.76 434.63Z" fill="#263238"/>
<path d="M273.13 438.88C272.819 439.204 272.453 439.471 272.05 439.67C271.624 439.916 271.175 440.12 270.71 440.28C270.432 440.38 270.143 440.451 269.85 440.49C269.667 440.513 269.481 440.467 269.33 440.36C269.254 440.291 269.2 440.201 269.173 440.102C269.147 440.003 269.149 439.898 269.18 439.8C269.349 439.473 269.588 439.187 269.881 438.965C270.174 438.742 270.513 438.588 270.874 438.513C271.234 438.438 271.607 438.445 271.964 438.533C272.322 438.62 272.655 438.787 272.94 439.02C273.12 439.17 273.2 439.28 273.19 439.29C272.832 439.039 272.432 438.853 272.01 438.74C271.555 438.634 271.079 438.662 270.64 438.82C270.111 438.995 269.672 439.373 269.42 439.87C269.35 440.12 269.56 440.27 269.84 440.25C270.113 440.212 270.381 440.145 270.64 440.05C271.093 439.908 271.535 439.731 271.96 439.52C272.7 439.15 273.11 438.84 273.13 438.88Z" fill="#263238"/>
<path d="M272.89 439.14C272.89 439.14 272.52 439.01 272.21 438.48C272.034 438.175 271.935 437.832 271.92 437.48C271.889 437.252 271.918 437.019 272.004 436.805C272.09 436.591 272.23 436.403 272.41 436.26C272.536 436.201 272.68 436.195 272.811 436.242C272.942 436.288 273.049 436.385 273.11 436.51C273.214 436.701 273.276 436.913 273.29 437.13C273.334 437.462 273.334 437.798 273.29 438.13C273.274 438.447 273.173 438.754 273 439.02C273 439.02 273.07 438.67 273.11 438.11C273.15 437.778 273.15 437.442 273.11 437.11C273.11 436.78 272.89 436.29 272.58 436.44C272.27 436.59 272.22 437.09 272.21 437.44C272.218 437.762 272.293 438.079 272.43 438.37C272.56 438.64 272.714 438.897 272.89 439.14Z" fill="#263238"/>
<path d="M290.23 424.49C290.23 424.49 289.71 424.8 289.02 425.49C288.109 426.334 287.457 427.419 287.14 428.62C286.823 429.82 286.854 431.086 287.23 432.27C287.51 433.18 287.84 433.68 287.8 433.71C287.698 433.612 287.613 433.497 287.55 433.37C287.353 433.054 287.189 432.719 287.06 432.37C286.62 431.154 286.561 429.834 286.889 428.583C287.218 427.333 287.919 426.212 288.9 425.37C289.189 425.117 289.504 424.896 289.84 424.71C290.08 424.53 290.22 424.47 290.23 424.49Z" fill="#263238"/>
<path d="M283.29 418.79C284.254 419.853 285.158 420.968 286 422.13C286.905 423.246 287.743 424.415 288.51 425.63C287.54 424.572 286.635 423.457 285.8 422.29C284.892 421.176 284.054 420.007 283.29 418.79Z" fill="#263238"/>
<path d="M284.52 433.72C283.852 434.502 283.09 435.197 282.25 435.79C281.453 436.442 280.576 436.99 279.64 437.42C279.64 437.35 280.75 436.6 282.09 435.58C283.43 434.56 284.47 433.66 284.52 433.72Z" fill="#263238"/>
<path d="M287.8 431.26C287.88 431.26 287.89 431.56 287.96 431.9C288.03 432.24 288.14 432.5 288.08 432.54C288.02 432.58 287.8 432.34 287.72 431.95C287.64 431.56 287.74 431.25 287.8 431.26Z" fill="#263238"/>
<path d="M287.9 428.8C287.97 428.8 287.99 429.06 287.95 429.37C287.91 429.68 287.81 429.91 287.74 429.9C287.67 429.89 287.65 429.64 287.69 429.33C287.73 429.02 287.83 428.79 287.9 428.8Z" fill="#263238"/>
<path d="M289.15 426.77C289.15 426.84 288.95 427 288.77 427.27C288.59 427.54 288.51 427.81 288.44 427.8C288.37 427.79 288.33 427.46 288.56 427.13C288.79 426.8 289.13 426.71 289.15 426.77Z" fill="#263238"/>
<path d="M290.16 425.5C290.22 425.5 290.16 425.7 290.09 425.85C290.02 426 289.86 426.11 289.8 426.07C289.74 426.03 289.8 425.88 289.88 425.72C289.96 425.56 290.1 425.46 290.16 425.5Z" fill="#263238"/>
<path d="M154.53 444.84L161.08 435.84L178.08 448L168.64 461.35L167.54 460.66C162.65 457.57 142.9 444.58 140.44 441.39C137.73 437.77 154.53 444.84 154.53 444.84Z" fill="#6C5ECF"/>
<g opacity="0.5">
<path opacity="0.5" d="M162.6 456.75C163.877 455.496 165.572 454.755 167.36 454.67C169.129 454.571 170.869 455.146 172.23 456.28L168.84 461L162.6 456.75Z" fill="white"/>
</g>
<g opacity="0.4">
<path opacity="0.4" d="M146.14 441.64C146.14 441.64 140.02 439.49 140.06 440.77C140.1 442.05 159.56 455.93 168.68 461.3L168.92 460.9L146.09 444.9C146.09 444.9 147.11 442.39 146.14 441.64Z" fill="white"/>
</g>
<path d="M169.2 461.08L168.88 460.9L168.01 460.35L164.81 458.27C162.13 456.5 158.45 454.01 154.46 451.17C150.47 448.33 146.89 445.66 144.34 443.71L141.34 441.37L140.53 440.72C140.35 440.57 140.25 440.49 140.26 440.48L140.56 440.68L141.4 441.3L144.4 443.57C146.98 445.48 150.56 448.11 154.55 450.96C158.54 453.81 162.21 456.32 164.86 458.13L168.01 460.27L168.86 460.86C168.981 460.92 169.095 460.994 169.2 461.08Z" fill="#263238"/>
<path d="M145.9 445.18C146.129 444.57 146.29 443.936 146.38 443.29C146.377 442.638 146.307 441.988 146.17 441.35C146.565 441.937 146.728 442.649 146.63 443.35C146.616 444.028 146.356 444.678 145.9 445.18Z" fill="#263238"/>
<path d="M152.75 446.21C152.619 445.524 152.657 444.818 152.86 444.15C152.959 444.474 152.983 444.816 152.93 445.15C152.9 445.76 152.82 446.22 152.75 446.21Z" fill="#263238"/>
<path d="M154.65 446.47C154.58 446.47 154.44 446.11 154.33 445.64C154.22 445.17 154.2 444.77 154.27 444.75C154.34 444.73 154.48 445.11 154.58 445.58C154.68 446.05 154.72 446.45 154.65 446.47Z" fill="#263238"/>
<path d="M156.67 445.48C156.67 445.54 156.19 445.3 155.67 444.96C155.15 444.62 154.8 444.29 154.84 444.23C154.88 444.17 155.32 444.4 155.84 444.75C156.36 445.1 156.71 445.42 156.67 445.48Z" fill="#263238"/>
<path d="M157.78 444.56C157.347 444.542 156.929 444.396 156.58 444.14C155.97 443.77 155.58 443.32 155.65 443.27C156.022 443.454 156.377 443.671 156.71 443.92C157.086 444.098 157.445 444.313 157.78 444.56Z" fill="#263238"/>
<path d="M153.23 444.31C152.823 444.117 152.454 443.853 152.14 443.53C151.775 443.197 151.441 442.832 151.14 442.44C150.957 442.207 150.8 441.956 150.67 441.69C150.599 441.517 150.599 441.323 150.67 441.15C150.712 441.057 150.779 440.977 150.864 440.921C150.949 440.864 151.048 440.832 151.15 440.83C151.713 440.924 152.226 441.211 152.602 441.642C152.978 442.072 153.192 442.619 153.21 443.19C153.225 443.531 153.171 443.871 153.05 444.19C152.96 444.41 152.88 444.51 152.86 444.5C153 444.085 153.058 443.647 153.03 443.21C152.99 442.747 152.816 442.306 152.53 441.94C152.37 441.715 152.166 441.525 151.93 441.381C151.695 441.237 151.433 441.141 151.16 441.1C150.89 441.1 150.82 441.35 150.93 441.61C151.05 441.857 151.194 442.091 151.36 442.31C151.637 442.697 151.941 443.065 152.27 443.41C152.84 444 153.26 444.28 153.23 444.31Z" fill="#263238"/>
<path d="M152.91 444.16C152.934 443.835 153.081 443.531 153.32 443.31C153.561 443.052 153.859 442.853 154.19 442.73C154.397 442.629 154.627 442.585 154.857 442.601C155.087 442.616 155.309 442.692 155.5 442.82C155.597 442.919 155.651 443.052 155.651 443.19C155.651 443.328 155.597 443.461 155.5 443.56C155.353 443.719 155.172 443.842 154.97 443.92C154.651 444.061 154.315 444.162 153.97 444.22C153.643 444.309 153.297 444.309 152.97 444.22C152.97 444.22 153.33 444.22 153.88 444.05C154.2 443.969 154.511 443.859 154.81 443.72C155.12 443.6 155.52 443.25 155.28 443.01C155.127 442.93 154.958 442.884 154.785 442.876C154.613 442.867 154.44 442.896 154.28 442.96C153.974 443.061 153.694 443.228 153.46 443.45C153.256 443.67 153.072 443.908 152.91 444.16Z" fill="#263238"/>
<path d="M172.18 456.16C172.18 456.16 171.72 455.77 170.88 455.31C169.796 454.707 168.564 454.423 167.325 454.49C166.087 454.557 164.892 454.973 163.88 455.69C163.1 456.23 162.73 456.69 162.69 456.69C162.755 456.564 162.839 456.449 162.94 456.35C163.189 456.056 163.471 455.791 163.78 455.56C164.804 454.783 166.036 454.327 167.32 454.25C168.603 454.185 169.875 454.509 170.97 455.18C171.303 455.372 171.612 455.604 171.89 455.87C171.999 455.953 172.097 456.051 172.18 456.16Z" fill="#263238"/>
<path d="M175.46 447.81C174.754 449.059 173.972 450.265 173.12 451.42C172.335 452.622 171.48 453.777 170.56 454.88C171.27 453.631 172.055 452.425 172.91 451.27C173.694 450.069 174.546 448.914 175.46 447.81Z" fill="#263238"/>
<path d="M161.64 453.56C160.697 453.155 159.81 452.631 159 452C158.137 451.433 157.348 450.761 156.65 450C156.65 449.94 157.76 450.81 159.15 451.77C160.54 452.73 161.67 453.5 161.64 453.56Z" fill="#263238"/>
<path d="M165 455.94C165 456.01 164.74 456.11 164.45 456.28C164.16 456.45 163.93 456.64 163.87 456.6C163.81 456.56 163.98 456.26 164.32 456.06C164.66 455.86 165 455.87 165 455.94Z" fill="#263238"/>
<path d="M167.36 455.27C167.36 455.34 167.13 455.44 166.83 455.49C166.53 455.54 166.27 455.49 166.26 455.49C166.25 455.49 166.48 455.32 166.79 455.27C167.1 455.22 167.34 455.2 167.36 455.27Z" fill="#263238"/>
<path d="M169.67 455.84C169.67 455.89 169.39 455.72 169.08 455.63C168.77 455.54 168.49 455.55 168.47 455.48C168.45 455.41 168.76 455.27 169.15 455.39C169.54 455.51 169.72 455.8 169.67 455.84Z" fill="#263238"/>
<path d="M171.19 456.41C171.19 456.48 171.01 456.5 170.83 456.41C170.65 456.32 170.52 456.27 170.54 456.21C170.56 456.15 170.72 456.12 170.9 456.21C171.08 456.3 171.21 456.35 171.19 456.41Z" fill="#263238"/>
<path d="M265.69 159.12C263.961 160.58 262.571 162.399 261.616 164.451C260.661 166.502 260.164 168.737 260.16 171C260.211 172.757 260.412 174.507 260.76 176.23C261.004 177.762 261.338 179.278 261.76 180.77C262.76 184.24 268.26 180.54 271.54 182.08L278.36 155.85C276.137 155.448 273.854 155.533 271.667 156.097C269.48 156.662 267.441 157.693 265.69 159.12Z" fill="#263238"/>
<path d="M304.68 212C301.772 211.275 298.808 210.794 295.82 210.56L295.55 170.69L293.74 168.21C292.287 166.216 290.454 164.53 288.346 163.248C286.238 161.967 283.897 161.116 281.459 160.744C279.02 160.372 276.532 160.487 274.138 161.082C271.744 161.677 269.491 162.74 267.51 164.21C266.519 164.947 265.716 165.906 265.165 167.011C264.615 168.116 264.332 169.335 264.34 170.57C264.4 176.14 264.53 186.3 264.81 192.98C265.22 202.57 274.61 203.75 274.61 203.75C274.61 203.75 274.73 206.62 274.84 210.34C273.033 210.44 271.137 210.58 269.15 210.76C269.15 210.76 273.35 236.15 281.48 247.61C281.48 247.61 301.05 230.8 305.25 212.16L304.68 212Z" fill="#FFBE9D"/>
<path d="M274.61 203.75C279.068 203.633 283.394 202.219 287.06 199.68C287.06 199.68 284.13 206.68 274.78 206.11L274.61 203.75Z" fill="#EB996E"/>
<path d="M275.46 192.58C275.381 192.398 275.35 192.198 275.369 192.001C275.388 191.803 275.457 191.613 275.57 191.45C275.686 191.296 275.837 191.174 276.012 191.094C276.187 191.013 276.378 190.978 276.57 190.99C276.618 190.552 276.828 190.147 277.159 189.856C277.491 189.566 277.919 189.41 278.36 189.42C278.801 189.452 279.219 189.63 279.548 189.925C279.877 190.22 280.099 190.615 280.18 191.05C280.244 191.484 280.184 191.927 280.007 192.329C279.83 192.731 279.544 193.074 279.18 193.32C278.805 193.554 278.379 193.694 277.938 193.727C277.498 193.76 277.056 193.685 276.65 193.51C276.324 193.391 276.035 193.189 275.81 192.924C275.586 192.66 275.434 192.341 275.37 192" fill="#EB996E"/>
<path d="M266.79 178.62C266.79 178.961 266.922 179.29 267.159 179.536C267.396 179.782 267.719 179.927 268.06 179.94C268.227 179.954 268.395 179.934 268.555 179.881C268.714 179.829 268.861 179.746 268.988 179.636C269.115 179.526 269.218 179.392 269.292 179.241C269.367 179.091 269.41 178.927 269.42 178.76C269.423 178.417 269.292 178.086 269.055 177.837C268.818 177.589 268.493 177.443 268.15 177.43C267.982 177.416 267.813 177.437 267.653 177.489C267.493 177.542 267.345 177.627 267.219 177.738C267.092 177.848 266.989 177.984 266.915 178.135C266.841 178.287 266.799 178.452 266.79 178.62Z" fill="#263238"/>
<path d="M266.31 177.14C266.47 177.31 267.47 176.57 268.88 176.57C270.29 176.57 271.34 177.29 271.49 177.11C271.64 176.93 271.4 176.73 270.95 176.4C270.336 175.975 269.607 175.748 268.86 175.75C268.124 175.75 267.407 175.981 266.81 176.41C266.37 176.75 266.22 177.06 266.31 177.14Z" fill="#263238"/>
<path d="M280.84 178.92C280.835 179.262 280.963 179.593 281.199 179.842C281.434 180.09 281.758 180.237 282.1 180.25C282.267 180.265 282.436 180.246 282.596 180.194C282.756 180.143 282.904 180.059 283.031 179.949C283.158 179.839 283.261 179.704 283.335 179.553C283.409 179.402 283.451 179.238 283.46 179.07C283.465 178.726 283.335 178.394 283.098 178.145C282.86 177.896 282.534 177.75 282.19 177.74C282.023 177.726 281.856 177.746 281.697 177.799C281.538 177.851 281.392 177.935 281.266 178.045C281.14 178.155 281.037 178.289 280.964 178.439C280.891 178.59 280.849 178.753 280.84 178.92Z" fill="#263238"/>
<path d="M280.23 177.4C280.39 177.57 281.39 176.83 282.81 176.84C284.23 176.85 285.26 177.55 285.41 177.38C285.56 177.21 285.33 176.99 284.87 176.66C284.259 176.231 283.527 176.007 282.78 176.02C282.061 176.027 281.362 176.257 280.78 176.68C280.3 177 280.15 177.32 280.23 177.4Z" fill="#263238"/>
<path d="M275.09 187.91C274.346 187.668 273.572 187.526 272.79 187.49C272.43 187.49 272.08 187.38 272.02 187.13C271.994 186.758 272.078 186.386 272.26 186.06L273.33 183.31C274.322 180.974 275.127 178.563 275.74 176.1C275.58 176.04 274.24 179.18 272.74 183.1L271.74 185.87C271.516 186.308 271.452 186.81 271.56 187.29C271.612 187.417 271.692 187.531 271.794 187.623C271.896 187.714 272.018 187.782 272.15 187.82C272.352 187.873 272.561 187.9 272.77 187.9C273.54 188 274.319 188.003 275.09 187.91Z" fill="#263238"/>
<path d="M279.26 188.89C279.03 188.89 279.02 190.41 277.71 191.5C276.4 192.59 274.76 192.42 274.71 192.64C274.66 192.86 275.08 192.94 275.77 192.96C276.67 192.97 277.545 192.662 278.24 192.09C278.912 191.546 279.343 190.759 279.44 189.9C279.53 189.26 279.36 188.88 279.26 188.89Z" fill="#263238"/>
<path d="M279.59 174.24C279.73 174.62 281.15 174.44 282.81 174.64C284.47 174.84 285.81 175.29 286.03 174.95C286.13 174.78 285.9 174.42 285.36 174.05C284.641 173.586 283.822 173.298 282.97 173.21C282.118 173.105 281.254 173.208 280.45 173.51C279.84 173.75 279.53 174.05 279.59 174.24Z" fill="#263238"/>
<path d="M265.51 174.79C265.76 175.11 266.74 174.79 267.91 174.79C269.08 174.79 270.08 175 270.31 174.67C270.41 174.5 270.25 174.18 269.82 173.88C269.241 173.505 268.559 173.32 267.87 173.35C267.196 173.374 266.544 173.6 266 174C265.54 174.3 265.4 174.63 265.51 174.79Z" fill="#263238"/>
<path d="M310.77 153.51C310.04 151.271 308.585 149.339 306.634 148.019C304.684 146.699 302.35 146.066 300 146.22C297.689 146.488 295.506 147.422 293.717 148.908C291.927 150.394 290.608 152.368 289.92 154.59C289.051 154.464 288.164 154.557 287.34 154.86C284.762 153.791 281.94 153.445 279.18 153.86C276.044 154.357 273.025 155.421 270.27 157C266.22 159.21 262.27 162.59 261.7 167.17C261.561 168.226 261.67 169.299 262.017 170.306C262.364 171.312 262.94 172.224 263.7 172.97C269.38 172.737 274.791 170.486 278.96 166.62L279.38 169.49C281.762 169.008 284.035 168.097 286.09 166.8C286.358 169.288 287.408 171.627 289.09 173.48C289.914 174.237 290.664 175.07 291.33 175.97C292.55 177.91 292.33 180.4 292.71 182.66C293.09 184.92 294.78 191.55 295.93 191.55C300.1 185.55 301.41 177.82 300.49 170.87C304.09 172.94 306.49 166.16 304.88 164.77C309.34 163.43 312.05 158.05 310.77 153.51Z" fill="#263238"/>
<path d="M280.35 167.18C280.29 167.18 280.43 166.76 280.73 166.18C281.131 165.403 281.694 164.722 282.38 164.18C282.742 163.907 283.155 163.711 283.595 163.603C284.035 163.494 284.493 163.476 284.94 163.55C285.63 163.7 285.94 164.06 285.88 164.1C285.82 164.14 285.49 163.95 284.88 163.91C284.093 163.889 283.322 164.132 282.69 164.6C282.056 165.109 281.5 165.709 281.04 166.38C280.66 166.9 280.41 167.22 280.35 167.18Z" fill="#455A64"/>
<path d="M274.35 167.23C274.4 166.45 274.64 165.695 275.05 165.03C275.936 163.336 277.356 161.983 279.09 161.18C280.825 160.377 282.776 160.17 284.64 160.59C285.416 160.706 286.151 161.012 286.78 161.48C286.78 161.56 285.95 161.17 284.58 160.95C282.795 160.651 280.96 160.898 279.317 161.658C277.674 162.418 276.299 163.656 275.37 165.21C274.65 166.4 274.43 167.26 274.35 167.23Z" fill="#455A64"/>
<path d="M265.2 169C265.24 168.619 265.335 168.245 265.48 167.89C265.811 166.905 266.244 165.956 266.77 165.06C268.515 162.059 271.147 159.672 274.304 158.229C277.462 156.785 280.989 156.356 284.4 157C285.428 157.179 286.433 157.467 287.4 157.86C287.756 157.982 288.092 158.154 288.4 158.37C287.064 157.956 285.705 157.622 284.33 157.37C280.992 156.843 277.573 157.316 274.503 158.729C271.434 160.142 268.851 162.432 267.08 165.31C266.379 166.5 265.751 167.733 265.2 169Z" fill="#455A64"/>
<path d="M293.85 168.56C293.7 168.62 292.91 166.56 291.42 164.32C290.876 163.341 290.146 162.478 289.27 161.78C288.862 161.589 288.404 161.529 287.96 161.61C287.96 161.61 288.04 161.47 288.3 161.38C288.669 161.266 289.068 161.291 289.42 161.45C289.921 161.675 290.36 162.018 290.7 162.45C291.115 162.948 291.502 163.469 291.86 164.01C292.853 165.36 293.533 166.914 293.85 168.56Z" fill="#455A64"/>
<path d="M297.67 166.31C296.669 164.917 295.59 163.582 294.44 162.31C293.593 161.459 292.658 160.702 291.65 160.05C291.224 159.817 290.754 159.674 290.27 159.63C290.27 159.56 290.89 159.28 291.81 159.72C292.922 160.295 293.935 161.045 294.81 161.94C296.126 163.124 297.111 164.63 297.67 166.31Z" fill="#455A64"/>
<path d="M301.12 166.14C300.679 165.595 300.297 165.005 299.98 164.38C299.161 162.934 298.126 161.623 296.91 160.49C295.674 159.402 294.121 158.739 292.48 158.6C291.794 158.612 291.109 158.669 290.43 158.77C291.042 158.376 291.763 158.187 292.49 158.23C294.249 158.267 295.936 158.93 297.25 160.1C298.514 161.264 299.549 162.654 300.3 164.2C300.665 164.804 300.941 165.457 301.12 166.14Z" fill="#455A64"/>
<path d="M297 210.63C296.976 211.289 296.757 211.926 296.37 212.46C295.512 213.788 294.28 214.832 292.83 215.46C291.394 216.082 289.868 216.47 288.31 216.61C287.676 216.721 287.03 216.741 286.39 216.67C286.99 216.451 287.615 216.31 288.25 216.25C289.749 216.003 291.213 215.577 292.61 214.98C293.98 214.371 295.169 213.416 296.06 212.21C296.69 211.32 296.87 210.6 297 210.63Z" fill="#263238"/>
<path d="M292.59 215.24C293.001 215.697 293.236 216.286 293.25 216.9C293.336 217.645 293.237 218.4 292.961 219.098C292.686 219.796 292.242 220.415 291.67 220.9L291.46 221.08L291.29 220.85C290.858 220.237 290.599 219.518 290.541 218.77C290.483 218.022 290.628 217.273 290.96 216.6C291.48 215.6 292.16 215.25 292.18 215.3C291.844 215.756 291.549 216.241 291.3 216.75C291.048 217.366 290.953 218.035 291.024 218.697C291.096 219.359 291.332 219.992 291.71 220.54L291.34 220.49C291.845 220.051 292.246 219.504 292.512 218.889C292.779 218.275 292.904 217.609 292.88 216.94C292.822 216.367 292.725 215.799 292.59 215.24Z" fill="#263238"/>
<path d="M291.9 219.05C291.76 219.05 291.72 218.23 291.82 217.25C291.92 216.27 292.11 215.49 292.26 215.51C292.41 215.53 292.44 216.32 292.34 217.3C292.24 218.28 292.05 219.06 291.9 219.05Z" fill="#263238"/>
<path d="M295.73 213.41C295.73 213.41 295.4 213.85 294.58 213.94C294.092 213.976 293.604 213.865 293.18 213.62C292.665 213.307 292.279 212.822 292.09 212.25C292.065 212.185 292.045 212.118 292.03 212.05L291.97 211.82L292.21 211.75C292.693 211.592 293.208 211.556 293.709 211.645C294.21 211.734 294.681 211.945 295.08 212.26C295.68 212.75 295.83 213.26 295.78 213.26C295.73 213.26 295.45 212.94 294.87 212.58C294.501 212.35 294.086 212.203 293.654 212.15C293.222 212.096 292.784 212.137 292.37 212.27L292.54 211.97V212.11C292.692 212.572 292.995 212.97 293.4 213.24C293.737 213.46 294.128 213.584 294.53 213.6C294.934 213.563 295.335 213.499 295.73 213.41Z" fill="#263238"/>
<path d="M293.43 212.64C293.43 212.5 293.93 212.41 294.48 212.64C295.03 212.87 295.34 213.26 295.25 213.36C295.16 213.46 294.76 213.3 294.25 213.12C293.74 212.94 293.42 212.78 293.43 212.64Z" fill="#263238"/>
<path d="M296.73 225.89C296.309 226.337 295.741 226.617 295.13 226.68C294.397 226.825 293.64 226.787 292.925 226.571C292.21 226.355 291.56 225.967 291.03 225.44L290.83 225.25L291.04 225.06C291.615 224.577 292.31 224.259 293.051 224.139C293.792 224.02 294.552 224.103 295.25 224.38C296.31 224.81 296.69 225.46 296.65 225.48C296.162 225.184 295.651 224.929 295.12 224.72C294.487 224.523 293.814 224.486 293.163 224.614C292.512 224.741 291.902 225.028 291.39 225.45V225.08C291.868 225.547 292.446 225.901 293.079 226.114C293.713 226.327 294.387 226.394 295.05 226.31C295.617 226.2 296.178 226.06 296.73 225.89Z" fill="#263238"/>
<path d="M292.88 225.52C292.88 225.38 293.68 225.27 294.66 225.29C295.64 225.31 296.44 225.43 296.44 225.57C296.44 225.71 295.64 225.82 294.65 225.81C293.66 225.8 292.88 225.66 292.88 225.52Z" fill="#263238"/>
<path d="M297 213.68C297.605 213.575 298.228 213.696 298.75 214.02C299.42 214.349 299.998 214.837 300.434 215.442C300.87 216.047 301.15 216.751 301.25 217.49V217.76H300.97C300.221 217.797 299.476 217.631 298.814 217.279C298.152 216.927 297.598 216.402 297.21 215.76C296.843 215.263 296.686 214.642 296.77 214.03C296.972 214.559 297.223 215.068 297.52 215.55C297.902 216.095 298.414 216.535 299.01 216.832C299.605 217.129 300.265 217.273 300.93 217.25L300.69 217.54C300.592 216.878 300.347 216.246 299.973 215.69C299.6 215.135 299.107 214.67 298.53 214.33C298.033 214.084 297.522 213.867 297 213.68Z" fill="#263238"/>
<path d="M299.83 216.31C299.74 216.42 299.05 216.02 298.28 215.41C297.51 214.8 296.95 214.21 297.04 214.1C297.13 213.99 297.83 214.39 298.6 215C299.37 215.61 299.92 216.19 299.83 216.31Z" fill="#263238"/>
<path d="M297.55 219.21C297.327 219.779 296.914 220.253 296.38 220.55C295.76 220.967 295.048 221.224 294.305 221.301C293.562 221.378 292.812 221.271 292.12 220.99L291.86 220.9L291.99 220.64C292.334 219.973 292.852 219.411 293.489 219.015C294.127 218.619 294.86 218.403 295.61 218.39C296.224 218.325 296.839 218.497 297.33 218.87C296.767 218.787 296.199 218.75 295.63 218.76C294.968 218.821 294.331 219.045 293.778 219.414C293.224 219.782 292.771 220.283 292.46 220.87L292.33 220.52C292.953 220.765 293.623 220.868 294.29 220.821C294.958 220.774 295.607 220.579 296.19 220.25C297.1 219.73 297.47 219.15 297.55 219.21Z" fill="#263238"/>
<path d="M293.85 220.35C293.8 220.22 294.5 219.81 295.41 219.45C296.32 219.09 297.1 218.9 297.16 219.03C297.22 219.16 296.51 219.57 295.6 219.93C294.69 220.29 293.91 220.48 293.85 220.35Z" fill="#263238"/>
<path d="M292.85 227.8C293.246 228.269 293.459 228.866 293.45 229.48C293.513 230.223 293.392 230.971 293.097 231.656C292.802 232.342 292.343 232.944 291.76 233.41L291.55 233.59L291.39 233.36C290.975 232.734 290.738 232.008 290.703 231.258C290.667 230.508 290.836 229.762 291.19 229.1C291.74 228.1 292.43 227.79 292.44 227.83C292.097 228.282 291.79 228.76 291.52 229.26C291.25 229.868 291.136 230.534 291.188 231.198C291.241 231.862 291.458 232.501 291.82 233.06L291.45 233C291.968 232.574 292.384 232.037 292.67 231.43C292.955 230.823 293.102 230.161 293.1 229.49C293.048 228.922 292.965 228.358 292.85 227.8Z" fill="#263238"/>
<path d="M292.05 231.58C291.9 231.58 291.89 230.76 292.05 229.78C292.21 228.8 292.39 228.04 292.54 228.05C292.69 228.06 292.69 228.88 292.54 229.85C292.39 230.82 292.19 231.6 292.05 231.58Z" fill="#263238"/>
<path d="M299.48 226.19C299.35 226.25 298.9 225.58 298.48 224.7C298.06 223.82 297.82 223.05 297.95 222.98C298.08 222.91 298.53 223.59 298.95 224.47C299.37 225.35 299.61 226.13 299.48 226.19Z" fill="#263238"/>
<path d="M288.18 232.31C288.163 232.221 288.163 232.129 288.18 232.04C288.173 231.767 288.206 231.493 288.28 231.23C288.623 230.284 289.275 229.481 290.13 228.95C291.392 228.213 292.734 227.623 294.13 227.19C294.895 226.893 295.604 226.47 296.23 225.94C296.857 225.346 297.29 224.575 297.47 223.73C297.737 222.024 297.632 220.281 297.16 218.62C296.782 217.206 296.673 215.734 296.84 214.28C296.979 213.286 297.419 212.358 298.1 211.62C298.285 211.421 298.497 211.25 298.73 211.11C298.81 211.059 298.898 211.022 298.99 211C298.99 211.05 298.67 211.23 298.25 211.75C297.683 212.5 297.337 213.394 297.25 214.33C297.139 215.741 297.281 217.16 297.67 218.52C298.186 220.248 298.305 222.07 298.02 223.85C297.817 224.797 297.324 225.656 296.61 226.31C295.944 226.885 295.178 227.332 294.35 227.63C292.989 228.041 291.673 228.587 290.42 229.26C289.604 229.717 288.951 230.416 288.55 231.26C288.2 231.92 288.24 232.32 288.18 232.31Z" fill="#263238"/>
<path d="M298.82 227.41C298.71 227.49 298.12 226.83 297.77 225.81C297.42 224.79 297.48 223.9 297.62 223.9C297.76 223.9 297.94 224.69 298.26 225.64C298.58 226.59 299 227.33 298.82 227.41Z" fill="#263238"/>
<path d="M300.61 224.16C300.5 224.26 299.97 223.81 299.21 223.49C298.45 223.17 297.76 223.08 297.76 222.93C297.76 222.78 298.53 222.63 299.42 223.01C300.31 223.39 300.72 224.08 300.61 224.16Z" fill="#263238"/>
<path d="M290.33 213.53C290.299 213.573 290.277 213.621 290.265 213.672C290.252 213.723 290.25 213.777 290.259 213.829C290.267 213.881 290.286 213.931 290.313 213.975C290.341 214.02 290.377 214.059 290.42 214.09C290.465 214.114 290.515 214.128 290.566 214.131C290.618 214.133 290.669 214.124 290.716 214.103C290.763 214.083 290.805 214.053 290.839 214.014C290.872 213.975 290.897 213.929 290.91 213.88C291 213.5 290.65 213.29 290.33 213.53Z" fill="#263238"/>
<path d="M294.3 216.37C294.24 216.457 294.216 216.564 294.233 216.668C294.249 216.772 294.306 216.866 294.39 216.93C294.435 216.954 294.485 216.968 294.536 216.971C294.588 216.973 294.639 216.964 294.686 216.943C294.733 216.923 294.775 216.893 294.809 216.854C294.842 216.815 294.867 216.769 294.88 216.72C294.98 216.34 294.62 216.13 294.3 216.37Z" fill="#263238"/>
<path d="M295.77 228C295.739 228.041 295.716 228.088 295.703 228.138C295.69 228.188 295.687 228.241 295.695 228.292C295.702 228.343 295.72 228.392 295.746 228.436C295.773 228.481 295.808 228.519 295.85 228.55C295.895 228.576 295.945 228.592 295.997 228.595C296.049 228.599 296.101 228.59 296.148 228.569C296.196 228.549 296.238 228.518 296.272 228.478C296.305 228.438 296.328 228.391 296.34 228.34C296.44 227.97 296.09 227.76 295.77 228Z" fill="#263238"/>
<path d="M299.3 219.88C299.195 220.036 299.152 220.226 299.182 220.412C299.212 220.597 299.311 220.765 299.46 220.88C299.543 220.924 299.635 220.948 299.729 220.952C299.823 220.955 299.917 220.938 300.003 220.9C300.09 220.863 300.166 220.806 300.228 220.735C300.29 220.664 300.335 220.581 300.36 220.49C300.54 219.79 299.89 219.4 299.3 219.85" fill="#263238"/>
<path d="M288.5 227C288.391 227.154 288.346 227.344 288.374 227.53C288.402 227.716 288.501 227.885 288.65 228C288.734 228.042 288.827 228.065 288.921 228.067C289.015 228.07 289.109 228.052 289.195 228.015C289.282 227.978 289.359 227.923 289.422 227.853C289.485 227.783 289.532 227.7 289.56 227.61C289.73 226.91 289.08 226.52 288.5 226.97" fill="#263238"/>
<path d="M307.39 149C306.682 148.748 305.928 148.656 305.18 148.73C303.389 149.09 301.714 149.883 300.3 151.04C298.232 152.633 296.377 154.485 294.78 156.55C295.057 155.819 295.46 155.142 295.97 154.55C297.094 153.043 298.443 151.717 299.97 150.62C301.445 149.406 303.228 148.624 305.12 148.36C305.522 148.29 305.935 148.311 306.328 148.422C306.721 148.533 307.084 148.73 307.39 149Z" fill="#455A64"/>
<path d="M309 162.21C309.103 161.939 309.224 161.676 309.36 161.42C309.652 160.708 309.768 159.936 309.7 159.17C309.6 158.039 309.165 156.963 308.45 156.08C307.534 155.032 306.308 154.304 304.95 154C302.428 153.492 299.809 153.845 297.51 155C295.7 155.83 294.64 156.48 294.6 156.41C294.56 156.34 294.82 156.18 295.29 155.87C295.952 155.428 296.64 155.028 297.35 154.67C298.406 154.118 299.528 153.705 300.69 153.44C302.131 153.105 303.629 153.105 305.07 153.44C306.538 153.771 307.855 154.576 308.82 155.73C309.581 156.693 310.015 157.874 310.06 159.1C310.101 159.918 309.925 160.732 309.55 161.46C309.428 161.75 309.24 162.007 309 162.21Z" fill="#455A64"/>
<path d="M296.23 148C295.394 149.287 294.741 150.684 294.29 152.15C293.995 153.654 293.9 155.191 294.01 156.72C293.761 156.319 293.62 155.861 293.6 155.39C293.276 153.119 293.861 150.811 295.23 148.97C295.75 148.28 296.18 148 296.23 148Z" fill="#455A64"/>
<path d="M318.42 154.07C317.646 154.458 316.835 154.77 316 155L310.09 157L304.16 159C303.355 159.319 302.521 159.56 301.67 159.72C302.423 159.288 303.217 158.933 304.04 158.66C305.53 158.07 307.6 157.3 309.92 156.51C312.24 155.72 314.35 155.08 315.92 154.65C316.731 154.372 317.569 154.177 318.42 154.07Z" fill="#E0E0E0"/>
<path d="M294.54 155.79C294.211 155.024 293.963 154.227 293.8 153.41C293.36 151.74 292.8 149.79 292.27 147.62L290.7 141.85C290.434 141.064 290.247 140.253 290.14 139.43C290.532 140.162 290.837 140.937 291.05 141.74C291.54 143.2 292.17 145.23 292.77 147.49C293.37 149.75 293.86 151.82 294.16 153.32C294.373 154.128 294.501 154.956 294.54 155.79Z" fill="#E0E0E0"/>
<path d="M179.35 229.21L198.47 285.08H285.05L284.41 282.21L249.4 281.13L233.28 229.18L179.35 229.21Z" fill="#E0E0E0"/>
<path d="M217.72 255.46C218.29 257.75 217.31 259.99 215.53 260.46C213.75 260.93 211.84 259.46 211.27 257.18C210.7 254.9 211.68 252.65 213.46 252.18C215.24 251.71 217.15 253.17 217.72 255.46Z" fill="white"/>
<path d="M256.26 313.71L215.38 343.13C213.1 344.611 211.168 346.57 209.719 348.871C208.269 351.172 207.336 353.76 206.984 356.456C206.633 359.152 206.87 361.893 207.681 364.489C208.492 367.084 209.856 369.473 211.68 371.49L269.82 435.79L289.82 421.94L248.82 363.94L318.82 311.22L256.26 313.71Z" fill="#455A64"/>
<path d="M278.64 313.35L212 350.41C208.236 352.457 205.119 355.516 203 359.24L156 441.89L173.8 455.89L231.8 373.51L311.25 344.4C315.936 342.718 320.021 339.691 322.993 335.697C325.966 331.703 327.694 326.921 327.96 321.95C328.12 318.44 328.08 317.16 328.28 312.75L278.64 313.35Z" fill="#455A64"/>
<path d="M201.69 361.65C201.69 361.65 201.69 361.58 201.78 361.44L202.08 360.84L203.3 358.56C204.704 355.664 206.89 353.219 209.61 351.5C216.61 347.5 226.28 342.13 236.98 336.16L264.46 321L272.82 316.45L275.1 315.24L275.7 314.94C275.84 314.873 275.91 314.843 275.91 314.85C275.91 314.85 275.85 314.85 275.73 314.99L275.15 315.33L272.91 316.63L264.64 321.32L237.24 336.62L209.8 351.82C207.109 353.481 204.923 355.846 203.48 358.66L202.17 360.89L201.82 361.47C201.74 361.59 201.7 361.66 201.69 361.65Z" fill="#263238"/>
<path d="M286 353.66C285.775 353.781 285.541 353.885 285.3 353.97L283.3 354.76L275.84 357.58L251.22 366.79L240.51 370.85L235.66 372.74C234.88 373.05 234.13 373.34 233.4 373.66L232.32 374.11L231.32 374.6V374.55C228.57 378.4 226.32 381.55 224.65 383.86L222.78 386.43L222.27 387.09C222.15 387.24 222.09 387.31 222.08 387.3C222.116 387.211 222.163 387.127 222.22 387.05L222.67 386.35L224.45 383.72L230.97 374.31L232.03 373.76L233.11 373.3C233.84 372.97 234.6 372.67 235.37 372.36L240.22 370.44L250.93 366.35C260.54 362.74 269.27 359.56 275.61 357.28L283.12 354.62L285.17 353.92C285.437 353.804 285.715 353.717 286 353.66Z" fill="#263238"/>
<path d="M256.44 312.59C265.8 316.11 276.21 315.67 286.01 313.71C295.81 311.75 305.27 308.36 315.01 306.03C317.6 305.41 320.32 304.87 322.88 305.59C325.44 306.31 328.7 310.09 328.41 312.73C328.09 315.61 324.12 315.93 321.41 317.02C308.14 322.331 293.58 323.529 279.62 320.46" fill="#455A64"/>
<path d="M444.48 443.21L444.62 442.87C444.74 442.63 444.88 442.31 445.08 441.87C445.627 440.626 446.068 439.338 446.4 438.02C447.459 433.119 447.422 428.045 446.29 423.16C445.591 419.77 444.669 416.429 443.53 413.16C442.36 409.62 441.01 405.86 439.9 401.8C438.651 397.558 438.048 393.152 438.11 388.73C438.28 384.11 439.65 379.49 441.11 374.9C442.57 370.31 444.17 365.81 444.63 361.28C445.146 356.929 444.274 352.526 442.14 348.7C440.14 345.04 437.64 341.9 435.76 338.64C434.035 335.631 432.768 332.382 432 329C430.87 324.072 430.788 318.962 431.76 314C432.105 312.19 432.628 310.418 433.32 308.71C433.303 308.83 433.273 308.947 433.23 309.06C433.15 309.31 433.05 309.65 432.91 310.06C432.64 310.96 432.28 312.29 431.91 314.06C431.01 319.014 431.143 324.1 432.3 329C433.1 332.353 434.394 335.568 436.14 338.54C438.01 341.76 440.53 344.88 442.56 348.6C444.752 352.497 445.655 356.988 445.14 361.43C444.67 366.03 443.14 370.56 441.61 375.15C440.08 379.74 438.75 384.3 438.61 388.85C438.542 393.223 439.132 397.582 440.36 401.78C441.45 405.78 442.78 409.59 443.94 413.14C445.058 416.411 445.964 419.752 446.65 423.14C447.779 428.076 447.779 433.204 446.65 438.14C446.3 439.462 445.825 440.748 445.23 441.98L444.74 442.92C444.66 443.023 444.573 443.119 444.48 443.21Z" fill="#263238"/>
<path d="M438.35 341.9C438.35 341.9 434.54 329.72 441.35 322.59C441.404 322.534 441.473 322.494 441.548 322.473C441.624 322.453 441.703 322.454 441.778 322.476C441.853 322.497 441.921 322.539 441.974 322.596C442.027 322.653 442.064 322.724 442.08 322.8C442.46 324.81 442.92 330.94 438.35 341.9Z" fill="#6C5ECF"/>
<path d="M440.63 326.65C440.626 327.407 440.539 328.162 440.37 328.9C440.12 330.45 439.83 332.26 439.51 334.27C439.19 336.28 438.9 338.09 438.65 339.64C438.585 340.391 438.451 341.134 438.25 341.86C438.18 341.107 438.203 340.348 438.32 339.6C438.44 338.21 438.69 336.29 439.03 334.19C439.37 332.09 439.74 330.19 440.03 328.84C440.151 328.091 440.353 327.357 440.63 326.65Z" fill="#263238"/>
<path d="M442.82 370.63C442.82 370.63 445.15 358.08 454.53 354.97C454.604 354.947 454.683 354.945 454.758 354.963C454.834 354.981 454.903 355.02 454.958 355.074C455.013 355.128 455.053 355.197 455.073 355.272C455.092 355.347 455.091 355.426 455.07 355.5C454.45 357.44 452 363.07 442.82 370.63Z" fill="#6C5ECF"/>
<path d="M452 358.21C451.64 358.876 451.211 359.503 450.72 360.08L447.44 364.42L444.18 368.77C443.767 369.403 443.298 369.999 442.78 370.55C443.07 369.84 443.446 369.168 443.9 368.55C444.66 367.38 445.78 365.8 447.06 364.1C448.34 362.4 449.56 360.9 450.46 359.84C450.912 359.242 451.429 358.695 452 358.21Z" fill="#263238"/>
<path d="M440.29 402.1C440.29 402.1 438.87 389.42 446.94 383.72C447.003 383.673 447.079 383.645 447.157 383.639C447.236 383.633 447.315 383.649 447.385 383.685C447.455 383.722 447.513 383.777 447.553 383.845C447.592 383.913 447.612 383.991 447.61 384.07C447.59 386.11 446.87 392.21 440.29 402.1Z" fill="#6C5ECF"/>
<path d="M445.44 387.56C445.287 388.301 445.059 389.025 444.76 389.72L442.88 394.83C442.19 396.74 441.56 398.47 441.02 399.94C440.813 400.664 440.539 401.367 440.2 402.04C440.277 401.286 440.445 400.544 440.7 399.83C441.09 398.49 441.7 396.66 442.43 394.66C443.16 392.66 443.89 390.88 444.43 389.6C444.696 388.887 445.034 388.204 445.44 387.56Z" fill="#263238"/>
<path d="M447.35 433.76C447.35 433.76 446.35 421.04 454.66 415.63C454.725 415.588 454.8 415.564 454.877 415.561C454.954 415.559 455.031 415.578 455.098 415.616C455.165 415.654 455.221 415.71 455.258 415.778C455.296 415.846 455.313 415.923 455.31 416C455.22 418 454.28 424.11 447.35 433.76Z" fill="#6C5ECF"/>
<path d="M453 419.42C452.817 420.153 452.562 420.867 452.24 421.55L450.18 426.55C449.42 428.44 448.73 430.14 448.18 431.55C447.945 432.27 447.644 432.966 447.28 433.63C447.388 432.88 447.582 432.145 447.86 431.44C448.3 430.11 448.97 428.3 449.78 426.33C450.59 424.36 451.37 422.6 451.97 421.33C452.243 420.658 452.588 420.017 453 419.42Z" fill="#263238"/>
<path d="M432.88 331.2C432.88 331.2 421.56 325.3 421.34 315.42C421.337 315.342 421.356 315.265 421.395 315.197C421.433 315.129 421.49 315.073 421.559 315.036C421.627 314.998 421.705 314.981 421.783 314.985C421.861 314.989 421.936 315.015 422 315.06C423.68 316.22 428.34 320.22 432.88 331.2Z" fill="#6C5ECF"/>
<path d="M423.69 318.81C424.219 319.351 424.691 319.944 425.1 320.58L428.29 324.99C429.48 326.64 430.57 328.12 431.49 329.39C431.973 329.968 432.405 330.587 432.78 331.24C432.19 330.764 431.666 330.213 431.22 329.6C430.33 328.53 429.15 327 427.9 325.27C426.65 323.54 425.58 321.95 424.82 320.77C424.374 320.159 423.995 319.502 423.69 318.81Z" fill="#263238"/>
<path d="M445 357.36C445 357.36 433.35 352.15 432.53 342.31C432.524 342.232 432.538 342.154 432.573 342.084C432.608 342.014 432.661 341.955 432.727 341.912C432.792 341.87 432.868 341.847 432.947 341.845C433.025 341.842 433.102 341.862 433.17 341.9C434.94 343 439.83 346.68 445 357.36Z" fill="#6C5ECF"/>
<path d="M435.1 345.55C435.659 346.06 436.168 346.623 436.62 347.23L440.07 351.44L443.53 355.63C444.05 356.18 444.518 356.776 444.93 357.41C444.318 356.96 443.761 356.439 443.27 355.86C442.32 354.86 441.04 353.39 439.7 351.74C438.36 350.09 437.17 348.56 436.35 347.44C435.869 346.855 435.45 346.222 435.1 345.55Z" fill="#263238"/>
<path d="M438.32 386.53C438.32 386.53 430.32 376.59 434.07 367.45C434.098 367.377 434.146 367.313 434.208 367.266C434.271 367.218 434.345 367.189 434.423 367.182C434.501 367.175 434.58 367.189 434.65 367.224C434.72 367.259 434.779 367.313 434.82 367.38C435.9 369.12 438.56 374.66 438.32 386.53Z" fill="#6C5ECF"/>
<path d="M434.87 371.5C435.13 372.211 435.324 372.944 435.45 373.69L436.6 379C437.04 381 437.44 382.79 437.77 384.32C437.986 385.041 438.134 385.781 438.21 386.53C437.87 385.854 437.615 385.138 437.45 384.4C437.06 383.06 436.58 381.19 436.14 379.11C435.7 377.03 435.34 375.11 435.14 373.75C434.964 373.013 434.873 372.258 434.87 371.5Z" fill="#263238"/>
<path d="M446.24 420.86C446.24 420.86 434.68 415.46 434.03 405.61C434.022 405.532 434.036 405.453 434.07 405.382C434.105 405.311 434.158 405.252 434.225 405.21C434.292 405.169 434.369 405.146 434.448 405.146C434.526 405.146 434.603 405.168 434.67 405.21C436.4 406.3 441.23 410.1 446.24 420.86Z" fill="#6C5ECF"/>
<path d="M436.52 408.89C437.068 409.41 437.564 409.983 438 410.6C439 411.83 440.11 413.27 441.38 414.86C442.65 416.45 443.79 417.86 444.77 419.11C445.277 419.67 445.736 420.272 446.14 420.91C445.533 420.453 444.986 419.922 444.51 419.33C443.57 418.33 442.32 416.83 441 415.16C439.68 413.49 438.53 411.94 437.73 410.8C437.257 410.21 436.851 409.569 436.52 408.89Z" fill="#263238"/>
<path d="M469.27 370.69C469.28 370.786 469.28 370.884 469.27 370.98C469.27 371.2 469.27 371.47 469.27 371.79C469.27 372.56 469.19 373.59 469.13 374.89C468.98 377.61 468.78 381.4 468.53 385.89C467.71 390.51 465.36 395.63 462.2 400.6C459.88 404.26 457.45 407.6 455.36 410.68C453.455 413.384 451.74 416.217 450.23 419.16C449.236 421.153 448.433 423.236 447.83 425.38C447.63 426.14 447.47 426.73 447.39 427.14C447.347 427.35 447.29 427.557 447.22 427.76C447.22 427.545 447.244 427.33 447.29 427.12C447.35 426.71 447.47 426.12 447.65 425.33C448.192 423.151 448.956 421.033 449.93 419.01C451.411 416.054 453.106 413.21 455 410.5C457.08 407.39 459.5 404.05 461.81 400.41C464.95 395.47 467.29 390.41 468.14 385.88C468.46 381.35 468.72 377.56 468.92 374.88L469.16 371.79C469.16 371.47 469.22 371.2 469.25 370.98C469.243 370.883 469.249 370.785 469.27 370.69Z" fill="#263238"/>
<path d="M462.38 399.72C462.38 399.72 467.28 387.93 461.12 380.21C461.073 380.147 461.009 380.099 460.936 380.071C460.863 380.043 460.784 380.036 460.707 380.05C460.63 380.065 460.558 380.1 460.501 380.153C460.443 380.206 460.401 380.275 460.38 380.35C459.84 382.32 458.83 388.38 462.38 399.72Z" fill="#6C5ECF"/>
<path d="M461.49 384.32C461.708 385.045 461.838 385.794 461.88 386.55C462.05 387.93 462.25 389.85 462.4 391.98C462.55 394.11 462.62 395.98 462.62 397.43C462.665 398.186 462.622 398.944 462.49 399.69C462.353 398.948 462.286 398.195 462.29 397.44C462.18 395.87 462.06 394.04 461.92 392.01C461.78 389.98 461.65 388.15 461.54 386.58C461.454 385.83 461.437 385.073 461.49 384.32Z" fill="#263238"/>
<g opacity="0.3">
<path opacity="0.3" d="M462.38 399.72C462.38 399.72 467.28 387.93 461.12 380.21C461.073 380.147 461.009 380.099 460.936 380.071C460.863 380.043 460.784 380.036 460.707 380.05C460.63 380.065 460.558 380.1 460.501 380.153C460.443 380.206 460.401 380.275 460.38 380.35C459.84 382.32 458.83 388.38 462.38 399.72Z" fill="black"/>
</g>
<path d="M447.22 428.11C447.22 428.11 451.14 415.97 444.38 408.78C444.328 408.72 444.26 408.677 444.185 408.654C444.109 408.631 444.028 408.63 443.952 408.651C443.876 408.672 443.807 408.714 443.754 408.772C443.7 408.83 443.664 408.902 443.65 408.98C443.27 411 442.76 417.11 447.22 428.11Z" fill="#6C5ECF"/>
<path d="M445.08 412.84C445.358 413.544 445.549 414.28 445.65 415.03C445.94 416.4 446.28 418.29 446.65 420.4C447.02 422.51 447.2 424.4 447.31 425.81C447.415 426.562 447.432 427.324 447.36 428.08C447.163 427.35 447.036 426.604 446.98 425.85L446.18 420.47C445.87 418.47 445.59 416.64 445.36 415.09C445.195 414.351 445.102 413.597 445.08 412.84Z" fill="#263238"/>
<g opacity="0.3">
<path opacity="0.3" d="M447.22 428.11C447.22 428.11 451.14 415.97 444.38 408.78C444.328 408.72 444.26 408.677 444.185 408.654C444.109 408.631 444.028 408.63 443.952 408.651C443.876 408.672 443.807 408.714 443.754 408.772C443.7 408.83 443.664 408.902 443.65 408.98C443.27 411 442.76 417.11 447.22 428.11Z" fill="black"/>
</g>
<path d="M468.62 385.31C468.62 385.31 479.07 378 478.02 368.18C478.014 368.102 477.986 368.027 477.94 367.963C477.893 367.9 477.83 367.851 477.757 367.822C477.684 367.793 477.605 367.785 477.527 367.799C477.45 367.812 477.378 367.847 477.32 367.9C475.8 369.27 471.7 373.84 468.62 385.31Z" fill="#6C5ECF"/>
<g opacity="0.3">
<path opacity="0.3" d="M468.62 385.31C468.62 385.31 479.07 378 478.02 368.18C478.014 368.102 477.986 368.027 477.94 367.963C477.893 367.9 477.83 367.851 477.757 367.822C477.684 367.793 477.605 367.785 477.527 367.799C477.45 367.812 477.378 367.847 477.32 367.9C475.8 369.27 471.7 373.84 468.62 385.31Z" fill="black"/>
</g>
<path d="M476.13 371.84C475.91 372.564 475.618 373.264 475.26 373.93C474.66 375.19 473.79 376.93 472.78 378.79C471.77 380.65 470.78 382.33 470.05 383.51C469.686 384.174 469.239 384.789 468.72 385.34C468.99 384.643 469.325 383.974 469.72 383.34L472.32 378.56L474.92 373.78C475.255 373.093 475.66 372.443 476.13 371.84Z" fill="#263238"/>
<path d="M451.43 416.08C451.43 416.08 464.04 414.08 467.43 404.83C467.46 404.757 467.468 404.676 467.454 404.598C467.44 404.52 467.405 404.448 467.351 404.39C467.298 404.331 467.229 404.289 467.153 404.268C467.077 404.246 466.996 404.247 466.92 404.27C465 404.83 459.25 407.13 451.43 416.08Z" fill="#6C5ECF"/>
<g opacity="0.3">
<path opacity="0.3" d="M451.43 416.08C451.43 416.08 464.04 414.08 467.43 404.83C467.46 404.757 467.468 404.676 467.454 404.598C467.44 404.52 467.405 404.448 467.351 404.39C467.298 404.331 467.229 404.289 467.153 404.268C467.077 404.246 466.996 404.247 466.92 404.27C465 404.83 459.25 407.13 451.43 416.08Z" fill="black"/>
</g>
<path d="M464.11 407.29C463.599 407.846 463.029 408.346 462.41 408.78C461.32 409.65 459.78 410.78 458.05 412.05C456.32 413.32 454.71 414.36 453.51 415.05C452.886 415.479 452.215 415.835 451.51 416.11C452.077 415.609 452.686 415.157 453.33 414.76L457.77 411.62L462.21 408.47C462.802 408.014 463.439 407.619 464.11 407.29Z" fill="#263238"/>
<path d="M439.41 439.28L435.73 464.03H458.65L455.68 439.28H439.41Z" fill="#455A64"/>
<path d="M456.59 447C453.516 447.238 450.432 447.319 447.35 447.24C444.268 447.318 441.184 447.238 438.11 447C441.184 446.762 444.268 446.682 447.35 446.76C450.432 446.682 453.516 446.762 456.59 447Z" fill="#263238"/>
<path d="M457.05 448.92C457.05 449.05 452.77 449.16 447.5 449.16C442.23 449.16 437.96 449.05 437.96 448.92C437.96 448.79 442.23 448.68 447.5 448.68C452.77 448.68 457.05 448.79 457.05 448.92Z" fill="#263238"/>
<path d="M101.4 227.5C100.683 228.122 99.9319 228.702 99.15 229.24C97.3402 230.612 95.62 232.098 94 233.69C92.3809 235.286 90.8645 236.982 89.46 238.77C88.9163 239.554 88.3182 240.3 87.67 241C88.0699 240.135 88.57 239.319 89.16 238.57C91.8296 234.817 95.1404 231.563 98.94 228.96C99.6951 228.371 100.522 227.881 101.4 227.5Z" fill="#263238"/>
<path d="M99.56 220C99.3739 221.846 99.0157 223.671 98.49 225.45C98.1352 227.262 97.6095 229.037 96.92 230.75C97.1056 228.893 97.4672 227.058 98 225.27C98.3588 223.47 98.8809 221.706 99.56 220Z" fill="#263238"/>
<path d="M98.76 219.55C98.4 219.71 98.29 220.55 98.59 221.03C98.7578 221.232 98.9921 221.367 99.2507 221.411C99.5092 221.455 99.7749 221.405 100 221.27C100.151 221.204 100.285 221.104 100.392 220.979C100.499 220.854 100.576 220.706 100.617 220.546C100.659 220.387 100.664 220.22 100.631 220.059C100.599 219.897 100.531 219.745 100.431 219.614C100.332 219.482 100.204 219.375 100.057 219.301C99.9103 219.226 99.7485 219.185 99.5838 219.182C99.4191 219.179 99.2558 219.213 99.1062 219.282C98.9566 219.351 98.8245 219.453 98.72 219.58" fill="#455A64"/>
<path d="M102.59 223C102.019 223.535 101.336 223.935 100.59 224.17C99.9278 224.564 99.1868 224.806 98.42 224.88C98.36 224.75 99.24 224.22 100.42 223.7C101.081 223.306 101.823 223.066 102.59 223Z" fill="#263238"/>
<path d="M102.5 222.13C102.178 222.34 101.932 222.649 101.8 223.01C101.744 223.191 101.756 223.386 101.833 223.559C101.91 223.732 102.048 223.871 102.22 223.95C102.337 223.985 102.461 223.99 102.58 223.964C102.699 223.938 102.809 223.881 102.9 223.8C103.087 223.642 103.226 223.434 103.3 223.2C103.394 222.949 103.394 222.671 103.3 222.42C103.255 222.296 103.166 222.193 103.049 222.131C102.933 222.068 102.798 222.05 102.67 222.08" fill="#455A64"/>
<path d="M102.47 226.51C102.74 226.539 102.988 226.671 103.163 226.878C103.339 227.084 103.428 227.351 103.413 227.621C103.399 227.892 103.281 228.147 103.084 228.333C102.887 228.52 102.626 228.624 102.355 228.624C102.084 228.624 101.823 228.52 101.626 228.333C101.429 228.147 101.311 227.892 101.297 227.621C101.282 227.351 101.371 227.084 101.547 226.878C101.722 226.671 101.97 226.539 102.24 226.51" fill="#455A64"/>
<path d="M79.21 196.92C79.3007 197.502 79.3441 198.091 79.34 198.68C79.34 199.9 79.43 201.52 79.5 203.49C79.61 207.55 79.72 213.15 79.81 219.34C79.9 225.53 79.97 231.14 79.98 235.19C79.98 237.19 79.98 238.78 79.98 240C79.9993 240.588 79.9759 241.176 79.91 241.76C79.8186 241.178 79.7751 240.589 79.78 240C79.78 238.78 79.69 237.16 79.62 235.2C79.51 231.14 79.4 225.54 79.3 219.34C79.2 213.14 79.15 207.54 79.14 203.49C79.14 201.49 79.14 199.9 79.14 198.68C79.1212 198.092 79.1446 197.504 79.21 196.92Z" fill="#263238"/>
<path d="M87.11 193.54C87.2316 195.081 86.8935 196.624 86.1384 197.974C85.3834 199.323 84.2452 200.418 82.8678 201.121C81.4904 201.824 79.9357 202.102 78.4 201.921C76.8644 201.741 75.4168 201.109 74.2402 200.105C73.0636 199.102 72.2109 197.773 71.7898 196.285C71.3687 194.797 71.3981 193.218 71.8744 191.747C72.3506 190.275 73.2523 188.979 74.4654 188.02C75.6786 187.061 77.1487 186.483 78.69 186.36C79.7144 186.278 80.745 186.399 81.7228 186.715C82.7005 187.032 83.6063 187.538 84.3883 188.205C85.1703 188.872 85.8132 189.686 86.2802 190.601C86.7472 191.517 87.0292 192.516 87.11 193.54Z" fill="#6C5ECF"/>
<g opacity="0.3">
<path opacity="0.3" d="M79 202C78.9681 201.243 78.9915 200.484 79.07 199.73C79.1688 197.94 78.8964 196.149 78.27 194.47C77.5941 192.821 76.3385 191.477 74.74 190.69C74.0493 190.417 73.3321 190.216 72.6 190.09C72.6 190.09 72.81 190.01 73.22 190.01C73.7892 190.023 74.3515 190.138 74.88 190.35C75.7516 190.716 76.5423 191.251 77.2065 191.924C77.8706 192.596 78.3952 193.394 78.75 194.27C79.4138 196.019 79.6503 197.901 79.44 199.76C79.4144 200.525 79.2659 201.282 79 202Z" fill="black"/>
</g>
<g opacity="0.3">
<path opacity="0.3" d="M86.29 191.1C84.7809 191.276 83.3223 191.752 82 192.5C80.7599 193.41 79.7187 194.564 78.94 195.89C78.88 195.89 78.94 195.33 79.39 194.55C79.9471 193.556 80.7384 192.713 81.6951 192.095C82.6518 191.476 83.7451 191.1 84.88 191C85.76 190.9 86.29 191 86.29 191.1Z" fill="black"/>
</g>
<g opacity="0.3">
<path opacity="0.3" d="M82.79 191.72C82.7 191.72 82.6 191.2 82.12 190.54C81.8249 190.101 81.4349 189.734 80.9789 189.466C80.5229 189.198 80.0125 189.036 79.4854 188.992C78.9584 188.948 78.4281 189.023 77.9339 189.211C77.4397 189.399 76.9941 189.696 76.63 190.08C76.05 190.66 75.86 191.17 75.78 191.14C75.7 191.11 75.78 190.54 76.36 189.83C76.7353 189.36 77.2205 188.991 77.7727 188.753C78.3249 188.515 78.9271 188.417 79.5261 188.468C80.1251 188.518 80.7025 188.715 81.2072 189.042C81.712 189.369 82.1285 189.814 82.42 190.34C82.7163 190.735 82.8488 191.23 82.79 191.72Z" fill="black"/>
</g>
<g opacity="0.3">
<path opacity="0.3" d="M80.63 193.22C80.48 193.22 80.31 192.16 79.63 191.04C78.95 189.92 78.14 189.23 78.23 189.1C78.32 188.97 79.37 189.53 80.08 190.78C80.3378 191.125 80.52 191.521 80.6147 191.941C80.7095 192.362 80.7147 192.797 80.63 193.22Z" fill="black"/>
</g>
<g opacity="0.3">
<path opacity="0.3" d="M79.87 190.89C79.87 191.05 79.26 191.25 78.72 191.77C78.18 192.29 77.82 192.9 77.72 192.77C77.62 192.64 77.72 192.01 78.4 191.35C79.08 190.69 79.86 190.77 79.87 190.89Z" fill="black"/>
</g>
<path d="M62.55 220.93C62.69 220.88 64.84 227.22 67.36 235.07C69.88 242.92 71.8 249.34 71.67 249.38C71.54 249.42 69.38 243.09 66.86 235.23C64.34 227.37 62.42 221 62.55 220.93Z" fill="#263238"/>
<path d="M67.56 236.56C67.47 236.65 65.28 234.91 62.56 232.8C60.8412 231.594 59.2346 230.235 57.76 228.74C59.5545 229.828 61.2659 231.048 62.88 232.39C64.5935 233.597 66.1637 234.997 67.56 236.56Z" fill="#263238"/>
<path d="M56.51 228.09C56.3234 228.352 56.2406 228.674 56.2775 228.994C56.3144 229.313 56.4685 229.608 56.71 229.82C57.0137 230.028 57.386 230.111 57.7492 230.051C58.1124 229.991 58.4386 229.794 58.66 229.5C58.8261 229.205 58.8688 228.857 58.7789 228.531C58.689 228.205 58.4736 227.928 58.18 227.76C57.8758 227.614 57.5297 227.581 57.2035 227.668C56.8774 227.754 56.5925 227.953 56.4 228.23" fill="#455A64"/>
<path d="M67.56 217.84C67.72 217.84 67.25 220.13 66.32 222.77C65.39 225.41 64.81 227.59 64.68 227.57C64.7801 225.852 65.1654 224.162 65.82 222.57C66.3118 220.962 66.8927 219.383 67.56 217.84Z" fill="#263238"/>
<path d="M67.32 215.89C66.8 216.26 66.77 216.48 66.57 217.09C66.5141 217.238 66.4881 217.396 66.4936 217.555C66.4991 217.713 66.5359 217.869 66.6019 218.013C66.6679 218.157 66.7618 218.287 66.8782 218.394C66.9946 218.502 67.1312 218.585 67.28 218.64C67.5796 218.655 67.8758 218.572 68.1246 218.404C68.3733 218.237 68.5611 217.993 68.66 217.71C68.7904 217.469 68.8587 217.199 68.8587 216.925C68.8587 216.651 68.7904 216.381 68.66 216.14C68.5871 216.027 68.4898 215.931 68.3753 215.86C68.2608 215.788 68.1319 215.743 67.9979 215.728C67.864 215.713 67.7283 215.727 67.6006 215.771C67.473 215.815 67.3567 215.886 67.26 215.98" fill="#455A64"/>
<path d="M58.35 234.61C58.3 234.47 59.23 233.96 60.42 233.46C61.1123 233.067 61.8854 232.838 62.68 232.79C62.74 232.92 61.82 233.43 60.62 233.94C59.9189 234.321 59.1454 234.549 58.35 234.61Z" fill="#263238"/>
<path d="M56.48 233.74C56.13 233.92 55.98 234.74 56 235.15C56.0148 235.331 56.0723 235.507 56.1679 235.661C56.2635 235.816 56.3945 235.946 56.55 236.04C56.7644 236.179 57.0127 236.257 57.2682 236.265C57.5236 236.273 57.7764 236.211 57.9991 236.086C58.2218 235.96 58.4059 235.776 58.5315 235.554C58.6571 235.331 58.7194 235.079 58.7117 234.823C58.7039 234.568 58.6263 234.319 58.4874 234.105C58.3485 233.89 58.1535 233.718 57.9236 233.606C57.6937 233.495 57.4376 233.448 57.1831 233.472C56.9287 233.495 56.6855 233.588 56.48 233.74Z" fill="#455A64"/>
<path d="M60.24 219.46C60.1445 219.865 60.1879 220.291 60.3631 220.669C60.5383 221.047 60.8352 221.355 61.2063 221.544C61.5774 221.733 62.0012 221.792 62.4098 221.711C62.8185 221.631 63.1883 221.416 63.46 221.1C63.5902 220.958 63.6894 220.79 63.7514 220.608C63.8134 220.425 63.8368 220.232 63.82 220.04C63.7109 219.651 63.4961 219.301 63.1994 219.027C62.9028 218.754 62.5361 218.568 62.14 218.49C61.76 218.451 61.377 218.525 61.039 218.703C60.701 218.881 60.4231 219.155 60.24 219.49" fill="#455A64"/>
<path d="M87.05 227.25C86.9144 227.959 86.7067 228.653 86.43 229.32C85.91 230.77 85.34 232.41 84.7 234.22C84.06 236.03 83.46 237.66 82.93 239.11C82.7283 239.804 82.4534 240.474 82.11 241.11C82.5909 238.697 83.2939 236.334 84.21 234.05C84.9395 231.699 85.8904 229.422 87.05 227.25Z" fill="#263238"/>
<path d="M95.35 223.66C95.0756 224.957 94.4228 226.143 93.4741 227.069C92.5254 227.994 91.3234 228.618 90.0203 228.86C88.7171 229.103 87.3714 228.953 86.1533 228.43C84.9352 227.908 83.8995 227.036 83.1772 225.924C82.4549 224.813 82.0785 223.512 82.0957 222.187C82.1128 220.861 82.5226 219.571 83.2734 218.478C84.0241 217.386 85.082 216.541 86.3132 216.05C87.5444 215.559 88.8936 215.444 90.19 215.72C91.9266 216.09 93.4455 217.134 94.413 218.622C95.3805 220.111 95.7175 221.923 95.35 223.66Z" fill="#6C5ECF"/>
<g opacity="0.3">
<path opacity="0.3" d="M86.63 228.62C86.7685 227.988 86.9626 227.368 87.21 226.77C87.7224 225.328 87.9301 223.796 87.82 222.27C87.6562 220.757 86.9449 219.356 85.82 218.33C85.3204 217.951 84.7884 217.616 84.23 217.33C84.9092 217.348 85.5591 217.611 86.06 218.07C86.6919 218.584 87.2153 219.217 87.5999 219.935C87.9844 220.653 88.2224 221.44 88.3 222.25C88.4258 223.851 88.1544 225.459 87.51 226.93C87.321 227.542 87.0228 228.114 86.63 228.62Z" fill="black"/>
</g>
<g opacity="0.3">
<path opacity="0.3" d="M95.27 221.46C93.973 221.265 92.6512 221.309 91.37 221.59C90.1471 222.054 89.0162 222.731 88.03 223.59C88.03 223.59 88.18 223.13 88.71 222.59C89.4141 221.893 90.2799 221.381 91.23 221.1C92.1787 220.819 93.1828 220.781 94.15 220.99C94.89 221.15 95.29 221.4 95.27 221.46Z" fill="black"/>
</g>
<g opacity="0.3">
<path opacity="0.3" d="M92.24 221.12C92.16 221.12 92.24 220.65 91.96 219.99C91.8096 219.572 91.5749 219.189 91.2704 218.866C90.9659 218.543 90.5981 218.285 90.19 218.11C89.7705 217.96 89.3242 217.899 88.8799 217.932C88.4355 217.964 88.0029 218.09 87.61 218.3C86.99 218.62 86.7 218.98 86.61 218.93C86.52 218.88 86.75 218.43 87.4 217.93C87.8252 217.631 88.3178 217.442 88.8339 217.38C89.3499 217.317 89.8733 217.384 90.3575 217.573C90.8416 217.762 91.2715 218.068 91.6087 218.464C91.9459 218.859 92.1799 219.332 92.29 219.84C92.48 220.66 92.3 221.13 92.24 221.12Z" fill="black"/>
</g>
<g opacity="0.3">
<path opacity="0.3" d="M90.11 221.82C89.96 221.82 90.11 220.87 89.8 219.82C89.49 218.77 89.04 217.98 89.16 217.89C89.28 217.8 90.02 218.49 90.31 219.7C90.6 220.91 90.24 221.87 90.11 221.82Z" fill="black"/>
</g>
<g opacity="0.3">
<path opacity="0.3" d="M90.05 219.73C90.05 219.88 89.47 219.91 88.91 220.2C88.35 220.49 87.91 220.89 87.79 220.77C87.67 220.65 87.97 220.13 88.68 219.77C89.39 219.41 90.08 219.6 90.05 219.73Z" fill="black"/>
</g>
<path d="M71.63 213.21C71.7643 213.567 71.8517 213.94 71.89 214.32L72.4 217.37C72.82 219.95 73.35 223.51 73.9 227.45C74.45 231.39 74.9 234.97 75.25 237.56C75.39 238.77 75.51 239.79 75.6 240.63C75.6664 241.003 75.6866 241.382 75.66 241.76C75.5245 241.407 75.4371 241.037 75.4 240.66L74.89 237.66C74.48 235.08 73.89 231.51 73.39 227.57C72.89 223.63 72.39 220.05 72.04 217.46C71.9 216.25 71.78 215.23 71.69 214.39C71.6265 214 71.6064 213.604 71.63 213.21Z" fill="#263238"/>
<path d="M77.32 206.18C77.6762 207.454 77.6467 208.805 77.2352 210.062C76.8237 211.32 76.0486 212.427 75.0081 213.244C73.9675 214.06 72.7081 214.551 71.3891 214.652C70.07 214.753 68.7506 214.461 67.5976 213.812C66.4445 213.164 65.5096 212.188 64.9111 211.008C64.3125 209.829 64.0771 208.498 64.2347 207.184C64.3923 205.871 64.9358 204.634 65.7964 203.629C66.6571 202.624 67.7963 201.897 69.07 201.54C69.9164 201.303 70.8012 201.234 71.674 201.339C72.5468 201.444 73.3904 201.719 74.1566 202.15C74.9228 202.581 75.5965 203.159 76.1393 203.85C76.6821 204.542 77.0833 205.333 77.32 206.18Z" fill="#6C5ECF"/>
<g opacity="0.3">
<path opacity="0.3" d="M71.9 214.62C71.733 213.994 71.6193 213.355 71.56 212.71C71.3371 211.195 70.8062 209.742 70 208.44C69.1661 207.174 67.9011 206.254 66.44 205.85C65.8162 205.738 65.1838 205.681 64.55 205.68C65.1723 205.379 65.8822 205.311 66.55 205.49C67.3476 205.65 68.1052 205.968 68.7783 206.425C69.4514 206.881 70.0266 207.468 70.47 208.15C71.3236 209.51 71.8317 211.059 71.95 212.66C72.0492 213.311 72.0322 213.975 71.9 214.62Z" fill="black"/>
</g>
<g opacity="0.3">
<path opacity="0.3" d="M76.23 204.26C74.9923 204.692 73.8436 205.346 72.84 206.19C71.9764 207.165 71.2986 208.291 70.84 209.51C70.78 209.51 70.76 209.03 70.98 208.3C71.272 207.362 71.7921 206.511 72.4937 205.824C73.1952 205.136 74.0564 204.633 75 204.36C75.75 204.17 76.22 204.2 76.23 204.26Z" fill="black"/>
</g>
<g opacity="0.3">
<path opacity="0.3" d="M73.39 205.36C73.31 205.36 73.13 204.97 72.61 204.5C72.2933 204.19 71.9117 203.953 71.4927 203.808C71.0737 203.663 70.6277 203.612 70.1868 203.66C69.7459 203.708 69.3211 203.853 68.943 204.085C68.5649 204.316 68.2428 204.629 68 205C67.59 205.57 67.51 206 67.43 206C67.35 206 67.32 205.49 67.68 204.79C67.9212 204.331 68.2712 203.938 68.6993 203.646C69.1275 203.354 69.6208 203.171 70.136 203.114C70.6512 203.057 71.1726 203.127 71.6545 203.318C72.1363 203.509 72.564 203.815 72.9 204.21C73.39 204.85 73.45 205.35 73.39 205.36Z" fill="black"/>
</g>
<g opacity="0.3">
<path opacity="0.3" d="M71.83 207C71.68 207 71.35 206.18 70.62 205.35C69.89 204.52 69.09 204.07 69.15 203.93C69.21 203.79 70.15 204.07 71.01 205.01C71.87 205.95 72 207 71.83 207Z" fill="black"/>
</g>
<g opacity="0.3">
<path opacity="0.3" d="M70.8 205.15C70.87 205.29 70.37 205.59 70.02 206.1C69.67 206.61 69.43 207.18 69.28 207.1C69.13 207.02 69.15 206.45 69.59 205.77C70.03 205.09 70.77 205 70.8 205.15Z" fill="black"/>
</g>
<path d="M69.78 284.42L61.77 240.58H92.66L87.33 284.42H69.78Z" fill="#455A64"/>
<path d="M429.22 284.69H54.14V296.71H429.22V284.69Z" fill="#263238"/>
<path d="M72.65 297.11L35.57 464.19H41.84L85.77 296.72L72.65 297.11Z" fill="#263238"/>
<path d="M384.94 297.11L422.01 464.19H415.74L371.82 296.72L384.94 297.11Z" fill="#263238"/>
<path d="M407.12 262.9C406.9 262.9 406.87 261.78 406.93 260.06C407.035 257.849 406.941 255.634 406.65 253.44C406.579 252.294 406.305 251.17 405.84 250.12C405.486 249.325 404.853 248.688 404.06 248.33C402.66 247.68 401.68 248.33 401.56 248.11C401.44 247.89 401.64 247.75 402.13 247.47C402.84 247.114 403.661 247.046 404.42 247.28C404.989 247.442 405.519 247.716 405.981 248.085C406.443 248.454 406.826 248.911 407.11 249.43C407.739 250.62 408.113 251.928 408.21 253.27C408.366 254.534 408.427 255.807 408.39 257.08C408.354 258.121 408.233 259.158 408.03 260.18C407.68 261.9 407.33 262.93 407.12 262.9Z" fill="#263238"/>
<path d="M391.31 244.46L390.35 242.8L391.86 242.07L393.23 242.71L392.58 244.57L391.31 244.46Z" fill="#263238"/>
<path d="M378.48 285.18L383.91 265.64L379.4 252.16L373.84 247.7L402.62 246.84L400.94 265.03L407.59 285.18H378.48Z" fill="#6C5ECF"/>
<path d="M379.99 247.03L391.69 244.37L402.62 246.84L379.99 247.03Z" fill="#6C5ECF"/>
<path d="M383.91 265.64L400.94 265.03L401.13 262.9H383.26L383.91 265.64Z" fill="#263238"/>
<path d="M402.77 246.84C402.77 246.99 397.77 247.1 391.61 247.1C385.45 247.1 380.44 246.99 380.44 246.84C380.44 246.69 385.44 246.58 391.61 246.58C397.78 246.58 402.77 246.7 402.77 246.84Z" fill="#263238"/>
<path d="M386.36 285C386.548 281.667 386.905 278.346 387.43 275.05C387.78 271.731 388.304 268.434 389 265.17C388.825 268.503 388.471 271.825 387.94 275.12C387.589 278.439 387.061 281.737 386.36 285Z" fill="#263238"/>
<path d="M398.89 285.46C398.482 284.537 398.167 283.576 397.95 282.59C397.45 280.79 396.83 278.28 396.29 275.49C395.75 272.7 395.36 270.14 395.15 268.28C394.985 267.289 394.915 266.284 394.94 265.28C395.215 266.263 395.409 267.266 395.52 268.28C395.82 270.12 396.25 272.65 396.8 275.44C397.35 278.23 397.9 280.73 398.31 282.55C398.572 283.505 398.766 284.477 398.89 285.46Z" fill="#263238"/>
<path d="M376.74 212.38C376.861 212.421 376.97 212.49 377.06 212.58C377.336 212.83 377.542 213.147 377.66 213.5C377.839 214.058 377.894 214.649 377.82 215.23C377.691 215.979 377.476 216.71 377.18 217.41C376.825 218.217 376.645 219.089 376.65 219.97C376.714 220.974 377.034 221.945 377.58 222.79C378.196 223.755 378.864 224.687 379.58 225.58C380.372 226.565 380.997 227.673 381.43 228.86C381.646 229.474 381.736 230.126 381.693 230.776C381.65 231.425 381.475 232.06 381.18 232.64C380.635 233.684 379.934 234.639 379.1 235.47C377.58 237.03 376.24 238.54 375.95 240.15C375.836 240.769 375.889 241.408 376.103 242C376.318 242.592 376.686 243.117 377.17 243.52C377.557 243.79 378.003 243.965 378.47 244.03C378.47 244.03 378.34 244.03 378.09 244.03C377.731 243.993 377.387 243.865 377.09 243.66C376.535 243.253 376.104 242.7 375.844 242.063C375.585 241.426 375.507 240.729 375.62 240.05C375.801 239.131 376.184 238.264 376.74 237.51C377.352 236.666 378.02 235.864 378.74 235.11C379.539 234.312 380.213 233.399 380.74 232.4C381.262 231.337 381.341 230.111 380.96 228.99C380.542 227.855 379.944 226.795 379.19 225.85C378.474 224.936 377.806 223.984 377.19 223C376.601 222.086 376.257 221.035 376.19 219.95C376.21 219.016 376.424 218.096 376.82 217.25C377.124 216.58 377.355 215.879 377.51 215.16C377.607 214.618 377.583 214.062 377.44 213.53C377.301 213.097 377.061 212.702 376.74 212.38Z" fill="#E0E0E0"/>
<path d="M382 218.24C381.899 218.569 381.816 218.903 381.75 219.24C381.661 220.195 381.856 221.155 382.31 222C383.05 223.241 383.897 224.416 384.84 225.51C385.988 226.976 386.558 228.812 386.44 230.67C386.373 231.626 386.122 232.56 385.7 233.42C385.291 234.204 384.78 234.93 384.18 235.58C383.152 236.594 382.234 237.714 381.44 238.92C380.936 239.739 380.663 240.679 380.65 241.64C380.65 242.32 380.83 242.64 380.78 242.69C380.73 242.74 380.72 242.62 380.64 242.45C380.542 242.193 380.478 241.924 380.45 241.65C380.382 240.636 380.611 239.625 381.11 238.74C381.88 237.485 382.789 236.321 383.82 235.27C384.377 234.641 384.853 233.946 385.24 233.2C385.629 232.395 385.86 231.522 385.92 230.63C386.032 228.892 385.509 227.172 384.45 225.79C383.51 224.662 382.679 223.446 381.97 222.16C381.513 221.23 381.366 220.179 381.55 219.16C381.604 218.891 381.699 218.631 381.83 218.39C381.92 218.31 382 218.23 382 218.24Z" fill="#E0E0E0"/>
<path d="M387.88 270.54C386.586 269.579 384.988 269.117 383.38 269.24C383.38 268.38 383.38 267.84 383.38 267.84H358.82C358.82 267.84 358 284 370.45 284.61C376 284.87 379.18 282.38 380.99 279.25C381.904 279.468 382.84 279.582 383.78 279.59C385.15 279.646 386.502 279.264 387.64 278.5C388.26 278.009 388.751 277.375 389.072 276.652C389.392 275.929 389.533 275.139 389.48 274.35C389.518 273.635 389.393 272.922 389.116 272.262C388.839 271.602 388.416 271.014 387.88 270.54ZM386.2 276.54C385.15 277.32 383.27 277.2 382.05 276.98C382.668 275.263 383.071 273.476 383.25 271.66C384.325 271.526 385.413 271.778 386.32 272.37C386.591 272.623 386.8 272.935 386.93 273.282C387.06 273.629 387.108 274.001 387.07 274.37C387.109 274.778 387.051 275.189 386.9 275.57C386.748 275.951 386.509 276.29 386.2 276.56V276.54Z" fill="#455A64"/>
<path d="M206.47 188.61L243.7 193.36L243.2 179.73L206.47 188.61Z" fill="#E0E0E0"/>
<path d="M243.167 180.007L207.431 177.025L206.441 188.884L242.177 191.866L243.167 180.007Z" fill="#455A64"/>
<path d="M238.15 183.56C238.15 183.56 232.15 183.12 224.78 182.5C217.41 181.88 211.41 181.36 211.41 181.33C211.41 181.3 217.41 181.77 224.79 182.39C232.17 183.01 238.16 183.53 238.15 183.56Z" fill="#263238"/>
<path d="M238.08 186.66C238.08 186.66 232.08 186.21 224.71 185.6C217.34 184.99 211.34 184.46 211.34 184.43C211.34 184.4 217.34 184.87 224.72 185.49C232.1 186.11 238.09 186.63 238.08 186.66Z" fill="#263238"/>
<path d="M218.03 176.21L231.88 177.36L231.15 177.98L232.1 178.81L230.97 179.32L231.98 180.22L217.47 179.01L218.38 178.24L217.92 177.42L218.7 177.03L218.03 176.21Z" fill="#EBEBEB"/>
<path d="M111.49 237.21V244.47H165.83V237.21H111.49Z" fill="#455A64"/>
<path d="M118.89 237.51C119.08 237.51 119.23 239.03 119.23 240.91C119.23 242.79 119.08 244.31 118.89 244.31C118.7 244.31 118.54 242.79 118.54 240.91C118.54 239.03 118.7 237.51 118.89 237.51Z" fill="#FAFAFA"/>
<path d="M117.7 237.36C117.89 237.36 118.05 238.88 118.05 240.76C118.05 242.64 117.89 244.16 117.7 244.16C117.51 244.16 117.36 242.64 117.36 240.76C117.36 238.88 117.51 237.36 117.7 237.36Z" fill="#FAFAFA"/>
<path d="M161.62 237.51C161.81 237.51 161.97 239.03 161.97 240.91C161.97 242.79 161.81 244.31 161.62 244.31C161.43 244.31 161.28 242.79 161.28 240.91C161.28 239.03 161.43 237.51 161.62 237.51Z" fill="#FAFAFA"/>
<path d="M160.44 237.36C160.63 237.36 160.78 238.88 160.78 240.76C160.78 242.64 160.63 244.16 160.44 244.16C160.25 244.16 160.1 242.64 160.1 240.76C160.1 238.88 160.25 237.36 160.44 237.36Z" fill="#FAFAFA"/>
<path d="M153.34 241.06C153.34 241.25 147.12 241.4 139.44 241.4C131.76 241.4 125.54 241.25 125.54 241.06C125.54 240.87 131.76 240.72 139.44 240.72C147.12 240.72 153.34 240.87 153.34 241.06Z" fill="#FAFAFA"/>
<path d="M111.24 269.89V284.41H165.58V269.89H111.24Z" fill="#455A64"/>
<path d="M166.29 280.33C166.197 280.398 166.096 280.455 165.99 280.5C165.79 280.6 165.49 280.74 165.09 280.91C163.909 281.421 162.67 281.787 161.4 282C159.361 282.373 157.256 282.074 155.4 281.15C154.259 280.536 153.285 279.654 152.56 278.58C151.72 277.355 151.363 275.862 151.56 274.39C151.691 273.593 152.037 272.846 152.56 272.23C152.844 271.902 153.198 271.642 153.596 271.468C153.994 271.295 154.426 271.214 154.86 271.23C155.308 271.268 155.743 271.398 156.139 271.611C156.534 271.824 156.882 272.117 157.16 272.47C157.757 273.169 158.123 274.035 158.21 274.95C158.286 275.891 158.159 276.837 157.836 277.724C157.514 278.611 157.003 279.418 156.34 280.09C154.966 281.545 153.112 282.455 151.12 282.65C149.065 282.855 146.991 282.595 145.05 281.89C142.979 281.246 141.141 280.013 139.76 278.34C139.046 277.439 138.614 276.346 138.52 275.2C138.461 274.605 138.535 274.004 138.735 273.44C138.936 272.877 139.258 272.364 139.68 271.94C140.138 271.494 140.742 271.228 141.38 271.19C142.01 271.175 142.63 271.349 143.16 271.69C144.176 272.375 144.892 273.424 145.16 274.62C145.382 275.779 145.3 276.977 144.921 278.095C144.543 279.213 143.881 280.214 143 281C141.274 282.455 139.132 283.326 136.88 283.49C134.746 283.736 132.584 283.522 130.54 282.86C128.533 282.233 126.821 280.901 125.72 279.11C125.174 278.265 124.834 277.303 124.729 276.303C124.623 275.302 124.753 274.291 125.11 273.35C125.29 272.874 125.589 272.452 125.977 272.123C126.365 271.794 126.831 271.569 127.33 271.47C127.808 271.387 128.297 271.402 128.769 271.516C129.24 271.629 129.683 271.838 130.07 272.13C130.75 272.718 131.239 273.495 131.476 274.363C131.713 275.23 131.687 276.148 131.4 277C130.877 278.524 129.926 279.864 128.66 280.86C126.566 282.625 123.946 283.645 121.21 283.76C119.16 283.826 117.127 283.361 115.31 282.41C114.165 281.824 113.124 281.054 112.23 280.13C111.999 279.893 111.782 279.642 111.58 279.38C111.508 279.29 111.442 279.197 111.38 279.1C112.517 280.359 113.872 281.402 115.38 282.18C117.462 283.201 119.8 283.586 122.1 283.285C124.4 282.985 126.56 282.012 128.31 280.49C129.484 279.539 130.367 278.278 130.86 276.85C131.116 276.103 131.145 275.297 130.944 274.534C130.743 273.771 130.321 273.084 129.73 272.56C129.404 272.32 129.034 272.149 128.64 272.056C128.247 271.963 127.838 271.951 127.44 272.02C127.037 272.108 126.662 272.296 126.351 272.567C126.04 272.837 125.802 273.183 125.66 273.57C125.349 274.424 125.241 275.338 125.345 276.241C125.449 277.144 125.762 278.01 126.26 278.77C127.293 280.425 128.887 281.653 130.75 282.23C132.707 282.848 134.772 283.042 136.81 282.8C138.921 282.653 140.93 281.841 142.55 280.48C143.335 279.768 143.924 278.866 144.262 277.861C144.6 276.856 144.675 275.782 144.48 274.74C144.258 273.718 143.653 272.82 142.79 272.23C142.398 271.946 141.92 271.806 141.436 271.835C140.953 271.864 140.495 272.06 140.14 272.39C139.78 272.74 139.504 273.165 139.331 273.636C139.158 274.107 139.092 274.611 139.14 275.11C139.221 276.124 139.601 277.091 140.23 277.89C141.539 279.465 143.275 280.629 145.23 281.24C147.078 281.911 149.052 282.164 151.01 281.98C152.86 281.813 154.586 280.982 155.87 279.64C156.48 279.033 156.951 278.301 157.253 277.495C157.555 276.69 157.68 275.828 157.62 274.97C157.586 274.189 157.289 273.443 156.777 272.853C156.265 272.263 155.568 271.864 154.8 271.72C154.441 271.705 154.083 271.775 153.755 271.922C153.427 272.07 153.138 272.292 152.91 272.57C152.446 273.112 152.135 273.768 152.01 274.47C151.82 275.824 152.133 277.201 152.89 278.34C153.564 279.366 154.477 280.214 155.55 280.81C157.323 281.723 159.341 282.045 161.31 281.73C162.562 281.558 163.793 281.253 164.98 280.82C165.85 280.49 166.28 280.3 166.29 280.33Z" fill="#FAFAFA"/>
<path d="M116.1 244.68V269.87H165.59V244.68H116.1Z" fill="#263238"/>
<path d="M124.32 245.54C124.51 245.54 124.67 251 124.67 257.73C124.67 264.46 124.51 269.93 124.32 269.93C124.13 269.93 123.98 264.47 123.98 257.73C123.98 250.99 124.14 245.54 124.32 245.54Z" fill="#E0E0E0"/>
<path d="M128.08 245.23C128.26 245.23 128.42 250.62 128.42 257.23C128.42 263.84 128.26 269.23 128.08 269.23C127.9 269.23 127.73 263.84 127.73 257.23C127.73 250.62 127.89 245.23 128.08 245.23Z" fill="#E0E0E0"/>
<path d="M160 244.42C160.18 244.42 160.34 250.1 160.34 257.1C160.34 264.1 160.18 269.77 160 269.77C159.82 269.77 159.65 264.1 159.65 257.1C159.65 250.1 159.81 244.42 160 244.42Z" fill="#E0E0E0"/>
<path d="M155.59 244.76C155.77 244.76 155.93 250.29 155.93 257.11C155.93 263.93 155.77 269.46 155.59 269.46C155.41 269.46 155.24 263.93 155.24 257.11C155.24 250.29 155.4 244.76 155.59 244.76Z" fill="#E0E0E0"/>
</svg>
