<svg width="58" height="58" viewBox="0 0 58 58" fill="none" xmlns="http://www.w3.org/2000/svg">
<path d="M29 2.41669L7.25 12.0834V26.5834C7.25 39.9958 16.53 52.5384 29 55.5834C41.47 52.5384 50.75 39.9958 50.75 26.5834V12.0834L29 2.41669ZM45.9167 26.5834C45.9167 31.0542 44.6842 35.4042 42.5817 39.1742L39.0775 35.67C42.195 30.9817 41.6633 24.6017 37.5308 20.4692C32.8183 15.7567 25.1575 15.7567 20.445 20.4692C15.7325 25.1817 15.7325 32.8425 20.445 37.555C24.5775 41.6875 30.9575 42.195 35.6458 39.1017L39.8025 43.2584C36.9267 46.69 33.205 49.3242 29 50.605C19.285 47.5842 12.0833 37.5067 12.0833 26.5834V15.225L29 7.70919L45.9167 15.225V26.5834ZM29 36.25C24.9883 36.25 21.75 33.0117 21.75 29C21.75 24.9884 24.9883 21.75 29 21.75C33.0117 21.75 36.25 24.9884 36.25 29C36.25 33.0117 33.0117 36.25 29 36.25Z" fill="url(#paint0_linear)"/>
<defs>
<linearGradient id="paint0_linear" x1="0.5" y1="5.5" x2="75" y2="61.5" gradientUnits="userSpaceOnUse">
<stop offset="0.0001" stop-color="#6D5FCF"/>
<stop offset="1" stop-color="#1D5CA6" stop-opacity="0.58"/>
</linearGradient>
</defs>
</svg>
